<svg xmlns="http://www.w3.org/2000/svg" xmlns:xlink="http://www.w3.org/1999/xlink" xmlns:lucid="lucid" width="1760" height="3952"><g transform="translate(0 0)" lucid:page-tab-id="0_0"><path d="M0 0h1760v3952H0z" fill="#fff"/><path d="M768 80c17.67 0 32 17.9 32 40s-14.33 40-32 40h-96c-17.67 0-32-17.9-32-40s14.33-40 32-40z" stroke="#000" stroke-width="2" fill="#fff"/><use xlink:href="#a" transform="matrix(1,0,0,1,645,85) translate(54.05 38.6)"/><path d="M642 200h188l-32 120H610z" stroke="#000" stroke-width="2" fill="#fff"/><use xlink:href="#b" transform="matrix(1,0,0,1,615,205) translate(20.89999999999999 47.8)"/><use xlink:href="#c" transform="matrix(1,0,0,1,615,205) translate(130.3 47.8)"/><use xlink:href="#d" transform="matrix(1,0,0,1,615,205) translate(70.05 69.4)"/><path d="M720 360l80 60-80 60-80-60z" stroke="#000" stroke-width="2" fill="#fff"/><use xlink:href="#e" transform="matrix(1,0,0,1,645,365) translate(33.775 58.6)"/><use xlink:href="#f" transform="matrix(1,0,0,1,645,365) translate(80.725 58.6)"/><use xlink:href="#g" transform="matrix(1,0,0,1,645,365) translate(96.225 58.6)"/><path d="M642 520h188l-32 120H610z" stroke="#000" stroke-width="2" fill="#fff"/><use xlink:href="#b" transform="matrix(1,0,0,1,615,525) translate(20.89999999999999 47.8)"/><use xlink:href="#c" transform="matrix(1,0,0,1,615,525) translate(130.3 47.8)"/><use xlink:href="#d" transform="matrix(1,0,0,1,615,525) translate(70.05 69.4)"/><path d="M720 321v19.5" stroke="#000" stroke-width="2" fill="none"/><path d="M721 321h-2v-1h2zM720 355.5l-4.64-14.25h9.28z"/><path d="M720 358.75l-6-18.5h12zm-3.26-16.5l3.26 10.03 3.26-10.03z"/><path d="M720 481.25v19.5" stroke="#000" stroke-width="2" fill="none"/><path d="M721 481.25h-2v-2l1 .75 1-.75zM720 515.76l-4.64-14.26h9.28z"/><path d="M720 519l-6-18.5h12zm-3.26-16.5l3.26 10.03 3.26-10.03z"/><path d="M582 680h308l-32 120H550z" stroke="#000" stroke-width="2" fill="#fff"/><use xlink:href="#h" transform="matrix(1,0,0,1,555,685) translate(28.19999999999999 47.8)"/><use xlink:href="#i" transform="matrix(1,0,0,1,555,685) translate(99.1 47.8)"/><use xlink:href="#j" transform="matrix(1,0,0,1,555,685) translate(170 47.8)"/><use xlink:href="#k" transform="matrix(1,0,0,1,555,685) translate(235.9 47.8)"/><use xlink:href="#l" transform="matrix(1,0,0,1,555,685) translate(258.85 47.8)"/><use xlink:href="#m" transform="matrix(1,0,0,1,555,685) translate(272.85 47.8)"/><use xlink:href="#n" transform="matrix(1,0,0,1,555,685) translate(136.55 69.4)"/><path d="M720 641v19.76" stroke="#000" stroke-width="2" fill="none"/><path d="M721 641h-2v-1h2zM720 675.76l-4.64-14.26h9.28z"/><path d="M720 679l-6-18.5h12zm-3.26-16.5l3.26 10.03 3.26-10.03z"/><path d="M624.97 580h-40V420h35.13" stroke="#000" stroke-width="2" fill="none"/><path d="M625.73 581h-.76v-2h1.3zM635.1 420l-14.27 4.64v-9.28z"/><path d="M638.33 420l-18.5 6v-12zm-16.5 3.26l10.03-3.26-10.03-3.26z"/><path d="M720 840l110 110-110 110-110-110z" stroke="#000" stroke-width="2" fill="#fff"/><use xlink:href="#o" transform="matrix(1,0,0,1,615,845) translate(27.82499999999999 87)"/><use xlink:href="#f" transform="matrix(1,0,0,1,615,845) translate(114.725 87)"/><use xlink:href="#p" transform="matrix(1,0,0,1,615,845) translate(130.225 87)"/><use xlink:href="#q" transform="matrix(1,0,0,1,615,845) translate(35.650000000000006 108.6)"/><use xlink:href="#r" transform="matrix(1,0,0,1,615,845) translate(106.50000000000001 108.6)"/><use xlink:href="#s" transform="matrix(1,0,0,1,615,845) translate(154.35000000000002 108.6)"/><use xlink:href="#t" transform="matrix(1,0,0,1,615,845) translate(49.074999999999996 130.2)"/><path d="M862 1060h238l-32 120H830z" stroke="#000" stroke-width="2" fill="#fff"/><use xlink:href="#u" transform="matrix(1,0,0,1,835,1065) translate(23.39999999999999 47.8)"/><use xlink:href="#f" transform="matrix(1,0,0,1,835,1065) translate(106.3 47.8)"/><use xlink:href="#v" transform="matrix(1,0,0,1,835,1065) translate(121.8 47.8)"/><use xlink:href="#w" transform="matrix(1,0,0,1,835,1065) translate(193.75 47.8)"/><use xlink:href="#x" transform="matrix(1,0,0,1,835,1065) translate(64.625 69.4)"/><use xlink:href="#y" transform="matrix(1,0,0,1,835,1065) translate(119.525 69.4)"/><path d="M962.9 1040.76h-2V951h-1.24v-2h3.24zM831.4 951v-2h111.26v2zM831.4 951H829l1-1-1-1h2.4zM961.9 1055.76l-4.64-14.26h9.27z"/><path d="M961.9 1059l-6-18.5h12zm-3.26-16.5l3.26 10.03 3.26-10.03z"/><use xlink:href="#z" transform="matrix(1,0,0,1,942.656196955204,939.2) translate(0 14.4)"/><path d="M450 1060h160v120H450z" stroke="#000" stroke-width="2" fill="#fff"/><use xlink:href="#u" transform="matrix(1,0,0,1,455,1065) translate(20.799999999999997 58.6)"/><use xlink:href="#f" transform="matrix(1,0,0,1,455,1065) translate(103.7 58.6)"/><use xlink:href="#A" transform="matrix(1,0,0,1,455,1065) translate(119.2 58.6)"/><path d="M531 1040.76h-2V976h2zM608.6 951H531v3.4h-2V949h79.6zM610 950l1 1h-2.4v-2h2.4zM530 1055.76l-4.64-14.26h9.28z"/><path d="M530 1059l-6-18.5h12zm-3.26-16.5l3.26 10.03 3.26-10.03z"/><use xlink:href="#B" transform="matrix(1,0,0,1,520,954.407107) translate(0 14.4)"/><path d="M720 801v19.35" stroke="#000" stroke-width="2" fill="none"/><path d="M721 801h-2v-1h2zM720 835.35l-4.64-14.27h9.28z"/><path d="M720 838.6l-6-18.52h12zm-3.26-16.52L720 832.1l3.26-10.02z"/><path d="M720 1260l110 110-110 110-110-110z" stroke="#000" stroke-width="2" fill="#fff"/><use xlink:href="#C" transform="matrix(1,0,0,1,615,1265) translate(32.3 87)"/><use xlink:href="#f" transform="matrix(1,0,0,1,615,1265) translate(110.25 87)"/><use xlink:href="#p" transform="matrix(1,0,0,1,615,1265) translate(125.75 87)"/><use xlink:href="#q" transform="matrix(1,0,0,1,615,1265) translate(35.650000000000006 108.6)"/><use xlink:href="#r" transform="matrix(1,0,0,1,615,1265) translate(106.50000000000001 108.6)"/><use xlink:href="#s" transform="matrix(1,0,0,1,615,1265) translate(154.35000000000002 108.6)"/><use xlink:href="#D" transform="matrix(1,0,0,1,615,1265) translate(66.05 130.2)"/><path d="M965 1181v38.8H720v20.55" stroke="#000" stroke-width="2" fill="none"/><path d="M966 1181h-2v-1h2zM720 1255.35l-4.64-14.27h9.28z"/><path d="M720 1258.6l-6-18.52h12zm-3.26-16.52l3.26 10.03 3.26-10.02z"/><path d="M530 1181v38.8h190v20.55" stroke="#000" stroke-width="2" fill="none"/><path d="M531 1181h-2v-1h2zM720 1255.35l-4.64-14.27h9.28z"/><path d="M720 1258.6l-6-18.52h12zm-3.26-16.52l3.26 10.03 3.26-10.02z"/><path d="M862 1480h238l-32 120H830z" stroke="#000" stroke-width="2" fill="#fff"/><use xlink:href="#E" transform="matrix(1,0,0,1,835,1485) translate(25.89999999999999 47.8)"/><use xlink:href="#f" transform="matrix(1,0,0,1,835,1485) translate(103.8 47.8)"/><use xlink:href="#v" transform="matrix(1,0,0,1,835,1485) translate(119.3 47.8)"/><use xlink:href="#w" transform="matrix(1,0,0,1,835,1485) translate(191.25 47.8)"/><use xlink:href="#x" transform="matrix(1,0,0,1,835,1485) translate(64.625 69.4)"/><use xlink:href="#y" transform="matrix(1,0,0,1,835,1485) translate(119.525 69.4)"/><path d="M450 1480h160v120H450z" stroke="#000" stroke-width="2" fill="#fff"/><use xlink:href="#E" transform="matrix(1,0,0,1,455,1485) translate(23.299999999999997 58.6)"/><use xlink:href="#f" transform="matrix(1,0,0,1,455,1485) translate(101.2 58.6)"/><use xlink:href="#A" transform="matrix(1,0,0,1,455,1485) translate(116.7 58.6)"/><path d="M720 1680l110 110-110 110-110-110z" stroke="#000" stroke-width="2" fill="#fff"/><use xlink:href="#F" transform="matrix(1,0,0,1,615,1685) translate(29.375 97.80000000000001)"/><use xlink:href="#f" transform="matrix(1,0,0,1,615,1685) translate(113.17500000000001 97.80000000000001)"/><use xlink:href="#p" transform="matrix(1,0,0,1,615,1685) translate(128.675 97.80000000000001)"/><use xlink:href="#q" transform="matrix(1,0,0,1,615,1685) translate(4.7250000000000085 119.4)"/><use xlink:href="#r" transform="matrix(1,0,0,1,615,1685) translate(75.57500000000002 119.4)"/><use xlink:href="#G" transform="matrix(1,0,0,1,615,1685) translate(123.42500000000001 119.4)"/><use xlink:href="#H" transform="matrix(1,0,0,1,615,1685) translate(148.425 119.4)"/><path d="M530 1601v38.8h190v20.55" stroke="#000" stroke-width="2" fill="none"/><path d="M531 1601h-2v-1h2zM720 1675.35l-4.64-14.27h9.28z"/><path d="M720 1678.6l-6-18.52h12zm-3.26-16.52l3.26 10.03 3.26-10.02z"/><path d="M965 1601v38.8H720v20.55" stroke="#000" stroke-width="2" fill="none"/><path d="M966 1601h-2v-1h2zM720 1675.35l-4.64-14.27h9.28z"/><path d="M720 1678.6l-6-18.52h12zm-3.26-16.52l3.26 10.03 3.26-10.02z"/><path d="M862 1900h238l-32 120H830z" stroke="#000" stroke-width="2" fill="#fff"/><use xlink:href="#I" transform="matrix(1,0,0,1,835,1905) translate(24.950000000000003 47.8)"/><use xlink:href="#f" transform="matrix(1,0,0,1,835,1905) translate(104.75000000000001 47.8)"/><use xlink:href="#v" transform="matrix(1,0,0,1,835,1905) translate(120.25000000000001 47.8)"/><use xlink:href="#w" transform="matrix(1,0,0,1,835,1905) translate(192.2 47.8)"/><use xlink:href="#x" transform="matrix(1,0,0,1,835,1905) translate(64.625 69.4)"/><use xlink:href="#y" transform="matrix(1,0,0,1,835,1905) translate(119.525 69.4)"/><path d="M460 1900h160v120H460z" stroke="#000" stroke-width="2" fill="#fff"/><use xlink:href="#I" transform="matrix(1,0,0,1,465,1905) translate(22.349999999999994 58.6)"/><use xlink:href="#f" transform="matrix(1,0,0,1,465,1905) translate(102.15 58.6)"/><use xlink:href="#A" transform="matrix(1,0,0,1,465,1905) translate(117.65 58.6)"/><path d="M966 1460.76h-2V1371h-2.8v-2h4.8zM831.4 1371v-2h112.8v2zM831.4 1371H829l1-1-1-1h2.4zM965 1475.76l-4.64-14.26h9.28z"/><path d="M965 1479l-6-18.5h12zm-3.26-16.5l3.26 10.03 3.26-10.03z"/><use xlink:href="#z" transform="matrix(1,0,0,1,944.207107,1359.2) translate(0 14.4)"/><path d="M531 1460.76h-2V1396h2zm77.6-89.76H531v3.4h-2v-5.4h79.6zM610 1370l1 1h-2.4v-2h2.4zM530 1475.76l-4.64-14.26h9.28z"/><path d="M530 1479l-6-18.5h12zm-3.26-16.5l3.26 10.03 3.26-10.03z"/><use xlink:href="#B" transform="matrix(1,0,0,1,520,1374.407107) translate(0 14.4)"/><path d="M966 1880.76h-2V1791h-2.8v-2h4.8zM831.4 1791v-2h112.8v2zM831.4 1791H829l1-1-1-1h2.4zM965 1895.76l-4.64-14.26h9.28z"/><path d="M965 1899l-6-18.5h12zm-3.26-16.5l3.26 10.03 3.26-10.03z"/><use xlink:href="#z" transform="matrix(1,0,0,1,944.207107,1779.2) translate(0 14.4)"/><path d="M541 1880.76h-2V1821h2zm67.6-89.76H541v8.4h-2V1789h69.6zM610 1790l1 1h-2.4v-2h2.4zM540 1895.76l-4.64-14.26h9.28z"/><path d="M540 1899l-6-18.5h12zm-3.26-16.5l3.26 10.03 3.26-10.03z"/><use xlink:href="#B" transform="matrix(1,0,0,1,530,1799.407107) translate(0 14.4)"/><path d="M725 2060l105 110-105 110-105-110z" stroke="#000" stroke-width="2" fill="#fff"/><use xlink:href="#J" transform="matrix(1,0,0,1,625,2065) translate(31.32499999999999 97.80000000000001)"/><use xlink:href="#f" transform="matrix(1,0,0,1,625,2065) translate(101.225 97.80000000000001)"/><use xlink:href="#p" transform="matrix(1,0,0,1,625,2065) translate(116.725 97.80000000000001)"/><use xlink:href="#q" transform="matrix(1,0,0,1,625,2065) translate(6.6499999999999915 119.4)"/><use xlink:href="#K" transform="matrix(1,0,0,1,625,2065) translate(77.5 119.4)"/><use xlink:href="#L" transform="matrix(1,0,0,1,625,2065) translate(140.5 119.4)"/><path d="M460 2280h160v120H460z" stroke="#000" stroke-width="2" fill="#fff"/><use xlink:href="#M" transform="matrix(1,0,0,1,465,2285) translate(8.324999999999989 47.8)"/><use xlink:href="#f" transform="matrix(1,0,0,1,465,2285) translate(87.175 47.8)"/><use xlink:href="#N" transform="matrix(1,0,0,1,465,2285) translate(102.675 47.8)"/><use xlink:href="#O" transform="matrix(1,0,0,1,465,2285) translate(117.675 47.8)"/><use xlink:href="#P" transform="matrix(1,0,0,1,465,2285) translate(17.349999999999994 69.4)"/><use xlink:href="#f" transform="matrix(1,0,0,1,465,2285) translate(107.15 69.4)"/><use xlink:href="#A" transform="matrix(1,0,0,1,465,2285) translate(122.65 69.4)"/><path d="M541 2260.76h-2V2196h2zm77.62-89.76H541v3.4h-2v-5.4h79.62zM620 2170l.95 1h-2.33v-2h2.33zM540 2275.76l-4.64-14.26h9.28z"/><path d="M540 2279l-6-18.5h12zm-3.26-16.5l3.26 10.03 3.26-10.03z"/><use xlink:href="#Q" transform="matrix(1,0,0,1,528.525,2174.3912229999996) translate(0 14.4)"/><path d="M862 2280h238l-32 120H830z" stroke="#000" stroke-width="2" fill="#fff"/><use xlink:href="#M" transform="matrix(1,0,0,1,835,2285) translate(25.424999999999997 26.19999999999999)"/><use xlink:href="#f" transform="matrix(1,0,0,1,835,2285) translate(104.275 26.19999999999999)"/><use xlink:href="#v" transform="matrix(1,0,0,1,835,2285) translate(119.775 26.19999999999999)"/><use xlink:href="#w" transform="matrix(1,0,0,1,835,2285) translate(191.72500000000002 26.19999999999999)"/><use xlink:href="#x" transform="matrix(1,0,0,1,835,2285) translate(64.625 47.79999999999999)"/><use xlink:href="#R" transform="matrix(1,0,0,1,835,2285) translate(119.525 47.79999999999999)"/><use xlink:href="#P" transform="matrix(1,0,0,1,835,2285) translate(26.424999999999997 69.39999999999999)"/><use xlink:href="#f" transform="matrix(1,0,0,1,835,2285) translate(116.22500000000001 69.39999999999999)"/><use xlink:href="#S" transform="matrix(1,0,0,1,835,2285) translate(131.72500000000002 69.39999999999999)"/><use xlink:href="#G" transform="matrix(1,0,0,1,835,2285) translate(185.625 69.39999999999999)"/><use xlink:href="#T" transform="matrix(1,0,0,1,835,2285) translate(210.625 69.39999999999999)"/><use xlink:href="#K" transform="matrix(1,0,0,1,835,2285) translate(72.075 91)"/><use xlink:href="#L" transform="matrix(1,0,0,1,835,2285) translate(135.075 91)"/><path d="M966 2260.76h-2V2171h-3.33v-2H966zM831.38 2171v-2h113.34v2zM831.38 2171h-2.33l.95-1-.95-1h2.33zM965 2275.76l-4.64-14.26h9.28z"/><path d="M965 2279l-6-18.5h12zm-3.26-16.5l3.26 10.03 3.26-10.03z"/><use xlink:href="#U" transform="matrix(1,0,0,1,944.716223,2159.2) translate(0 14.4)"/><path d="M965 2021v18.78H725v.54" stroke="#000" stroke-width="2" fill="none"/><path d="M966 2021h-2v-1h2zM725 2055.32l-4.64-14.27h9.28z"/><path d="M725 2058.55l-6-18.5h12zm-3.26-16.5l3.26 10.03 3.26-10.03z"/><path d="M540 2021v18.78h185v.54" stroke="#000" stroke-width="2" fill="none"/><path d="M541 2021h-2v-1h2zM725 2055.32l-4.64-14.27h9.28z"/><path d="M725 2058.55l-6-18.5h12zm-3.26-16.5l3.26 10.03 3.26-10.03z"/><path d="M725 2460l120 122-120 122-120-122z" stroke="#000" stroke-width="2" fill="#fff"/><use xlink:href="#V" transform="matrix(1,0,0,1,610,2465) translate(15.349999999999994 109.80000000000001)"/><use xlink:href="#f" transform="matrix(1,0,0,1,610,2465) translate(139.2 109.80000000000001)"/><use xlink:href="#W" transform="matrix(1,0,0,1,610,2465) translate(154.70000000000002 109.80000000000001)"/><use xlink:href="#j" transform="matrix(1,0,0,1,610,2465) translate(38.599999999999994 131.4)"/><use xlink:href="#G" transform="matrix(1,0,0,1,610,2465) translate(104.5 131.4)"/><use xlink:href="#X" transform="matrix(1,0,0,1,610,2465) translate(129.5 131.4)"/><path d="M880 2780h160v120H880z" stroke="#000" stroke-width="2" fill="#fff"/><g><use xlink:href="#Y" transform="matrix(1,0,0,1,885,2785) translate(5.25 58.6)"/><use xlink:href="#f" transform="matrix(1,0,0,1,885,2785) translate(93.25 58.6)"/><use xlink:href="#Z" transform="matrix(1,0,0,1,885,2785) translate(108.75 58.6)"/></g><path d="M400 2780h160v120H400z" stroke="#000" stroke-width="2" fill="#fff"/><g><use xlink:href="#Y" transform="matrix(1,0,0,1,405,2785) translate(5.25 58.6)"/><use xlink:href="#f" transform="matrix(1,0,0,1,405,2785) translate(93.25 58.6)"/><use xlink:href="#aa" transform="matrix(1,0,0,1,405,2785) translate(108.75 58.6)"/></g><path d="M160 2780h160v120H160z" stroke="#000" stroke-width="2" fill="#fff"/><g><use xlink:href="#Y" transform="matrix(1,0,0,1,165,2785) translate(5.25 58.6)"/><use xlink:href="#f" transform="matrix(1,0,0,1,165,2785) translate(93.25 58.6)"/><use xlink:href="#ab" transform="matrix(1,0,0,1,165,2785) translate(108.75 58.6)"/></g><path d="M1120 2780h160v120h-160z" stroke="#000" stroke-width="2" fill="#fff"/><g><use xlink:href="#Y" transform="matrix(1,0,0,1,1125,2785) translate(10.25 58.6)"/><use xlink:href="#f" transform="matrix(1,0,0,1,1125,2785) translate(98.25 58.6)"/><use xlink:href="#ac" transform="matrix(1,0,0,1,1125,2785) translate(113.75 58.6)"/></g><path d="M527.83 2743.2H481v17.56h-2v-19.55h48.83zm198.17 0h-48.83v-2H724v-35.77h2zM726 2705.43h-2v-2.45l1 1.02 1-1.02zM480 2775.76l-4.64-14.26h9.28z"/><path d="M480 2779l-6-18.5h12zm-3.26-16.5l3.26 10.03 3.26-10.03z"/><g><use xlink:href="#V" transform="matrix(1,0,0,1,527.825,2731.4130235) translate(0 14.4)"/><use xlink:href="#f" transform="matrix(1,0,0,1,527.825,2731.4130235) translate(123.85000000000001 14.4)"/><use xlink:href="#ad" transform="matrix(1,0,0,1,527.825,2731.4130235) translate(139.35000000000002 14.4)"/></g><path d="M966.33 2741.2v19.56h-2v-17.55h-44.5v-2zm-195.84 0v2H724v-37.77h2v35.78zM726 2705.43h-2v-2.45l1 1.02 1-1.02zM965.33 2775.76l-4.63-14.26h9.27z"/><path d="M965.33 2779l-6-18.5h12.02zm-3.26-16.5l3.26 10.03 3.26-10.03z"/><g><use xlink:href="#V" transform="matrix(1,0,0,1,770.4916666666668,2731.4130235) translate(0 14.4)"/><use xlink:href="#f" transform="matrix(1,0,0,1,770.4916666666668,2731.4130235) translate(123.85000000000001 14.4)"/><use xlink:href="#ae" transform="matrix(1,0,0,1,770.4916666666668,2731.4130235) translate(139.35000000000002 14.4)"/></g><path d="M356.83 2692.1H241v68.66h-2v-70.66h117.83zm354.08 0H506.2v-2H710.9z"/><path d="M713.3 2692.1h-2.4v-2h.43zM240 2775.76l-4.64-14.26h9.28z"/><path d="M240 2779l-6-18.5h12zm-3.26-16.5l3.26 10.03 3.26-10.03z"/><g><use xlink:href="#V" transform="matrix(1,0,0,1,356.82696492936606,2680.2975417122902) translate(0 14.4)"/><use xlink:href="#f" transform="matrix(1,0,0,1,356.82696492936606,2680.2975417122902) translate(123.85000000000001 14.4)"/><use xlink:href="#af" transform="matrix(1,0,0,1,356.82696492936606,2680.2975417122902) translate(139.35000000000002 14.4)"/></g><path d="M1201 2760.76h-2v-69.65h-157.55v-2H1201zm-460.93-69.65v-2H987.5v2z"/><path d="M740.07 2691.1h-2.4l1.98-2h.42zM1200 2775.76l-4.64-14.26h9.28z"/><path d="M1200 2779l-6-18.5h12zm-3.26-16.5l3.26 10.03 3.26-10.03z"/><g><use xlink:href="#ag" transform="matrix(1,0,0,1,987.5036843523429,2679.3087878943734) translate(0 14.4)"/></g><path d="M485 3040h480v199.4H485z" stroke="#000" stroke-width="2" fill="#fff"/><g><use xlink:href="#ah" transform="matrix(1,0,0,1,490.00000000000006,3045) translate(25.774999999999977 44.6)"/><use xlink:href="#ai" transform="matrix(1,0,0,1,490.00000000000006,3045) translate(75.22499999999998 44.6)"/><use xlink:href="#aj" transform="matrix(1,0,0,1,490.00000000000006,3045) translate(200.02499999999998 44.6)"/><use xlink:href="#ak" transform="matrix(1,0,0,1,490.00000000000006,3045) translate(212.02499999999998 44.6)"/><use xlink:href="#al" transform="matrix(1,0,0,1,490.00000000000006,3045) translate(311.825 44.6)"/><use xlink:href="#am" transform="matrix(1,0,0,1,490.00000000000006,3045) translate(327.325 44.6)"/><use xlink:href="#an" transform="matrix(1,0,0,1,490.00000000000006,3045) translate(437.225 44.6)"/><use xlink:href="#ao" transform="matrix(1,0,0,1,490.00000000000006,3045) translate(61.849999999999994 66.2)"/><use xlink:href="#al" transform="matrix(1,0,0,1,490.00000000000006,3045) translate(152.7 66.2)"/><use xlink:href="#ap" transform="matrix(1,0,0,1,490.00000000000006,3045) translate(168.2 66.2)"/><use xlink:href="#aj" transform="matrix(1,0,0,1,490.00000000000006,3045) translate(283.95000000000005 66.2)"/><use xlink:href="#S" transform="matrix(1,0,0,1,490.00000000000006,3045) translate(295.95000000000005 66.2)"/><use xlink:href="#aq" transform="matrix(1,0,0,1,490.00000000000006,3045) translate(349.85 66.2)"/><use xlink:href="#ar" transform="matrix(1,0,0,1,490.00000000000006,3045) translate(397.65 66.2)"/><use xlink:href="#as" transform="matrix(1,0,0,1,490.00000000000006,3045) translate(57.19999999999999 87.80000000000001)"/><use xlink:href="#aj" transform="matrix(1,0,0,1,490.00000000000006,3045) translate(188.05 87.80000000000001)"/><use xlink:href="#at" transform="matrix(1,0,0,1,490.00000000000006,3045) translate(200.05 87.80000000000001)"/><use xlink:href="#aj" transform="matrix(1,0,0,1,490.00000000000006,3045) translate(311.85 87.80000000000001)"/><use xlink:href="#au" transform="matrix(1,0,0,1,490.00000000000006,3045) translate(323.85 87.80000000000001)"/><use xlink:href="#av" transform="matrix(1,0,0,1,490.00000000000006,3045) translate(11.75 109.40000000000002)"/><use xlink:href="#f" transform="matrix(1,0,0,1,490.00000000000006,3045) translate(79.7 109.40000000000002)"/><use xlink:href="#aw" transform="matrix(1,0,0,1,490.00000000000006,3045) translate(95.2 109.40000000000002)"/><use xlink:href="#aj" transform="matrix(1,0,0,1,490.00000000000006,3045) translate(214.05 109.40000000000002)"/><use xlink:href="#ak" transform="matrix(1,0,0,1,490.00000000000006,3045) translate(226.05 109.40000000000002)"/><use xlink:href="#al" transform="matrix(1,0,0,1,490.00000000000006,3045) translate(325.85 109.40000000000002)"/><use xlink:href="#am" transform="matrix(1,0,0,1,490.00000000000006,3045) translate(341.35 109.40000000000002)"/><use xlink:href="#an" transform="matrix(1,0,0,1,490.00000000000006,3045) translate(451.25 109.40000000000002)"/><use xlink:href="#ao" transform="matrix(1,0,0,1,490.00000000000006,3045) translate(61.849999999999994 131)"/><use xlink:href="#al" transform="matrix(1,0,0,1,490.00000000000006,3045) translate(152.7 131)"/><use xlink:href="#ap" transform="matrix(1,0,0,1,490.00000000000006,3045) translate(168.2 131)"/><use xlink:href="#aj" transform="matrix(1,0,0,1,490.00000000000006,3045) translate(283.95000000000005 131)"/><use xlink:href="#S" transform="matrix(1,0,0,1,490.00000000000006,3045) translate(295.95000000000005 131)"/><use xlink:href="#aq" transform="matrix(1,0,0,1,490.00000000000006,3045) translate(349.85 131)"/><use xlink:href="#ar" transform="matrix(1,0,0,1,490.00000000000006,3045) translate(397.65 131)"/><use xlink:href="#as" transform="matrix(1,0,0,1,490.00000000000006,3045) translate(110.17499999999998 152.6)"/><use xlink:href="#aj" transform="matrix(1,0,0,1,490.00000000000006,3045) translate(241.025 152.6)"/><use xlink:href="#ax" transform="matrix(1,0,0,1,490.00000000000006,3045) translate(253.025 152.6)"/></g><path d="M960 2901v69H725v50.76" stroke="#000" stroke-width="2" fill="none"/><path d="M961 2901h-2v-1h2zM725 3035.76l-4.64-14.26h9.28z"/><path d="M725 3039l-6-18.5h12zm-3.26-16.5l3.26 10.03 3.26-10.03z"/><path d="M1200 2901v69H725v50.76" stroke="#000" stroke-width="2" fill="none"/><path d="M1201 2901h-2v-1h2zM725 3035.76l-4.64-14.26h9.28z"/><path d="M725 3039l-6-18.5h12zm-3.26-16.5l3.26 10.03 3.26-10.03z"/><path d="M480 2901v69h245v50.76" stroke="#000" stroke-width="2" fill="none"/><path d="M481 2901h-2v-1h2zM725 3035.76l-4.64-14.26h9.28z"/><path d="M725 3039l-6-18.5h12zm-3.26-16.5l3.26 10.03 3.26-10.03z"/><path d="M240 2901v69h485v50.76" stroke="#000" stroke-width="2" fill="none"/><path d="M241 2901h-2v-1h2zM725 3035.76l-4.64-14.26h9.28z"/><path d="M725 3039l-6-18.5h12zm-3.26-16.5l3.26 10.03 3.26-10.03z"/><path d="M965 2401v28.8H725v10.54" stroke="#000" stroke-width="2" fill="none"/><path d="M966 2401h-2v-1h2zM725 2455.34l-4.64-14.27h9.28z"/><path d="M725 2458.57l-6-18.5h12zm-3.26-16.5l3.26 10.03 3.26-10.03z"/><path d="M540 2401v28.8h185v10.54" stroke="#000" stroke-width="2" fill="none"/><path d="M541 2401h-2v-1h2zM725 2455.34l-4.64-14.27h9.28z"/><path d="M725 2458.57l-6-18.5h12zm-3.26-16.5l3.26 10.03 3.26-10.03z"/><path d="M485 3300h480v160H485z" stroke="#000" stroke-width="2" fill="#fff"/><g><use xlink:href="#ay" transform="matrix(1,0,0,1,490,3305) translate(22.399999999999977 46.19999999999999)"/><use xlink:href="#i" transform="matrix(1,0,0,1,490,3305) translate(92.1 46.19999999999999)"/><use xlink:href="#j" transform="matrix(1,0,0,1,490,3305) translate(163 46.19999999999999)"/><use xlink:href="#az" transform="matrix(1,0,0,1,490,3305) translate(228.9 46.19999999999999)"/><use xlink:href="#aA" transform="matrix(1,0,0,1,490,3305) translate(256.85 46.19999999999999)"/><use xlink:href="#l" transform="matrix(1,0,0,1,490,3305) translate(339.75 46.19999999999999)"/><use xlink:href="#aB" transform="matrix(1,0,0,1,490,3305) translate(353.75 46.19999999999999)"/><use xlink:href="#aC" transform="matrix(1,0,0,1,490,3305) translate(62.79999999999998 67.8)"/><use xlink:href="#l" transform="matrix(1,0,0,1,490,3305) translate(136.75 67.8)"/><use xlink:href="#aD" transform="matrix(1,0,0,1,490,3305) translate(150.75 67.8)"/><use xlink:href="#aE" transform="matrix(1,0,0,1,490,3305) translate(240.65 67.8)"/><use xlink:href="#l" transform="matrix(1,0,0,1,490,3305) translate(311.45000000000005 67.8)"/><use xlink:href="#aF" transform="matrix(1,0,0,1,490,3305) translate(325.45000000000005 67.8)"/><use xlink:href="#aG" transform="matrix(1,0,0,1,490,3305) translate(16.224999999999994 89.4)"/><use xlink:href="#aH" transform="matrix(1,0,0,1,490,3305) translate(148.07500000000002 89.4)"/><use xlink:href="#l" transform="matrix(1,0,0,1,490,3305) translate(262.92500000000007 89.4)"/><use xlink:href="#aI" transform="matrix(1,0,0,1,490,3305) translate(276.92500000000007 89.4)"/><use xlink:href="#aJ" transform="matrix(1,0,0,1,490,3305) translate(385.82500000000005 89.4)"/><use xlink:href="#aK" transform="matrix(1,0,0,1,490,3305) translate(164.525 111)"/><use xlink:href="#l" transform="matrix(1,0,0,1,490,3305) translate(252.525 111)"/><use xlink:href="#aL" transform="matrix(1,0,0,1,490,3305) translate(266.525 111)"/></g><path d="M725 3240.4v40.36" stroke="#000" stroke-width="2" fill="none"/><path d="M726 3240.4h-2v-1h2zM725 3295.76l-4.64-14.26h9.28z"/><path d="M725 3299l-6-18.5h12zm-3.26-16.5l3.26 10.03 3.26-10.03z"/><path d="M773 3520.6c17.67 0 32 17.9 32 40s-14.33 40-32 40h-96c-17.67 0-32-17.9-32-40s14.33-40 32-40z" stroke="#000" stroke-width="2" fill="#fff"/><g><use xlink:href="#aM" transform="matrix(1,0,0,1,650,3525.5999999999767) translate(60.05 38.6)"/></g><path d="M725 3461v40.36" stroke="#000" stroke-width="2" fill="none"/><path d="M726 3461h-2v-1h2zM725 3516.36l-4.64-14.26h9.28z"/><path d="M725 3519.6l-6-18.5h12zm-3.26-16.5l3.26 10.03 3.26-10.03z"/><path d="M380 360c-12.15 0-22 26.86-22 60s9.85 60 22 60H182c-12.15 0-22-26.86-22-60s9.85-60 22-60z" stroke="#000" stroke-width="2" fill="#fff"/><g><use xlink:href="#aN" transform="matrix(1,0,0,1,165,365) translate(27.82499999999999 37)"/><use xlink:href="#f" transform="matrix(1,0,0,1,165,365) translate(121.675 37)"/><use xlink:href="#aO" transform="matrix(1,0,0,1,165,365) translate(137.175 37)"/><use xlink:href="#aP" transform="matrix(1,0,0,1,165,365) translate(32.3 58.6)"/><use xlink:href="#f" transform="matrix(1,0,0,1,165,365) translate(117.2 58.6)"/><use xlink:href="#aQ" transform="matrix(1,0,0,1,165,365) translate(132.7 58.6)"/><use xlink:href="#aR" transform="matrix(1,0,0,1,165,365) translate(36.375 80.20000000000002)"/><use xlink:href="#f" transform="matrix(1,0,0,1,165,365) translate(118.12500000000001 80.20000000000002)"/><use xlink:href="#aS" transform="matrix(1,0,0,1,165,365) translate(133.625 80.20000000000002)"/></g><path d="M170 260h200v80H170z" stroke="#000" stroke-width="2" fill="#fff"/><g><use xlink:href="#aT" transform="matrix(1,0,0,1,175,265) translate(71.525 27.799999999999997)"/><use xlink:href="#aU" transform="matrix(1,0,0,1,175,265) translate(23.099999999999994 49.4)"/></g><path d="M350 140c0 44.18-35.82 80-80 80s-80-35.82-80-80 35.82-80 80-80 80 35.82 80 80z" stroke="#000" stroke-width="2" fill="#ff8f80"/><g><use xlink:href="#aV" transform="matrix(1,0,0,1,195,65) translate(4.074999999999989 67.8)"/><use xlink:href="#aW" transform="matrix(1,0,0,1,195,65) translate(69.975 67.8)"/><use xlink:href="#aX" transform="matrix(1,0,0,1,195,65) translate(15.174999999999997 89.4)"/><use xlink:href="#aY" transform="matrix(1,0,0,1,195,65) translate(80.97500000000001 89.4)"/></g><path d="M720 161v19.76" stroke="#000" stroke-width="2" fill="none"/><path d="M721 161h-2v-1h2zM720 195.76l-4.64-14.26h9.28z"/><path d="M720 199l-6-18.5h12zm-3.26-16.5l3.26 10.03 3.26-10.03z"/><defs><path d="M33 0v-248h34V0H33" id="aZ"/><path d="M117-194c89-4 53 116 60 194h-32v-121c0-31-8-49-39-48C34-167 62-67 57 0H25l-1-190h30c1 10-1 24 2 32 11-22 29-35 61-36" id="ba"/><path d="M24-231v-30h32v30H24zM24 0v-190h32V0H24" id="bb"/><path d="M96-169c-40 0-48 33-48 73s9 75 48 75c24 0 41-14 43-38l32 2c-6 37-31 61-74 61-59 0-76-41-82-99-10-93 101-131 147-64 4 7 5 14 7 22l-32 3c-4-21-16-35-41-35" id="bc"/><path d="M100-194c62-1 85 37 85 99 1 63-27 99-86 99S16-35 15-95c0-66 28-99 85-99zM99-20c44 1 53-31 53-75 0-43-8-75-51-75s-53 32-53 75 10 74 51 75" id="bd"/><g id="a"><use transform="matrix(0.05,0,0,0.05,0,0)" xlink:href="#aZ"/><use transform="matrix(0.05,0,0,0.05,5,0)" xlink:href="#ba"/><use transform="matrix(0.05,0,0,0.05,15,0)" xlink:href="#bb"/><use transform="matrix(0.05,0,0,0.05,18.95,0)" xlink:href="#bc"/><use transform="matrix(0.05,0,0,0.05,27.950000000000003,0)" xlink:href="#bb"/><use transform="matrix(0.05,0,0,0.05,31.899999999999995,0)" xlink:href="#bd"/></g><path d="M141-36C126-15 110 5 73 4 37 3 15-17 15-53c-1-64 63-63 125-63 3-35-9-54-41-54-24 1-41 7-42 31l-33-3c5-37 33-52 76-52 45 0 72 20 72 64v82c-1 20 7 32 28 27v20c-31 9-61-2-59-35zM48-53c0 20 12 33 32 33 41-3 63-29 60-74-43 2-92-5-92 41" id="be"/><path d="M135-143c-3-34-86-38-87 0 15 53 115 12 119 90S17 21 10-45l28-5c4 36 97 45 98 0-10-56-113-15-118-90-4-57 82-63 122-42 12 7 21 19 24 35" id="bf"/><path d="M206 0h-36l-40-164L89 0H53L-1-190h32L70-26l43-164h34l41 164 42-164h31" id="bg"/><path d="M18-150v-26h174v26H18zm0 90v-26h174v26H18" id="bh"/><path d="M30-248c118-7 216 8 213 122C240-48 200 0 122 0H30v-248zM63-27c89 8 146-16 146-99s-60-101-146-95v194" id="bi"/><path d="M100-194c63 0 86 42 84 106H49c0 40 14 67 53 68 26 1 43-12 49-29l28 8c-11 28-37 45-77 45C44 4 14-33 15-96c1-61 26-98 85-98zm52 81c6-60-76-77-97-28-3 7-6 17-6 28h103" id="bj"/><g id="b"><use transform="matrix(0.05,0,0,0.05,0,0)" xlink:href="#be"/><use transform="matrix(0.05,0,0,0.05,10,0)" xlink:href="#ba"/><use transform="matrix(0.05,0,0,0.05,20,0)" xlink:href="#bf"/><use transform="matrix(0.05,0,0,0.05,29,0)" xlink:href="#bg"/><use transform="matrix(0.05,0,0,0.05,41.95,0)" xlink:href="#bh"/><use transform="matrix(0.05,0,0,0.05,52.45,0)" xlink:href="#bi"/><use transform="matrix(0.05,0,0,0.05,65.4,0)" xlink:href="#bj"/><use transform="matrix(0.05,0,0,0.05,75.4,0)" xlink:href="#bf"/><use transform="matrix(0.05,0,0,0.05,84.4,0)" xlink:href="#bj"/><use transform="matrix(0.05,0,0,0.05,94.4,0)" xlink:href="#be"/></g><path d="M114-163C36-179 61-72 57 0H25l-1-190h30c1 12-1 29 2 39 6-27 23-49 58-41v29" id="bk"/><path d="M24 0v-261h32V0H24" id="bl"/><path d="M9 0v-24l116-142H16v-24h144v24L44-24h123V0H9" id="bm"/><g id="c"><use transform="matrix(0.05,0,0,0.05,0,0)" xlink:href="#bk"/><use transform="matrix(0.05,0,0,0.05,5.95,0)" xlink:href="#bj"/><use transform="matrix(0.05,0,0,0.05,15.949999999999998,0)" xlink:href="#be"/><use transform="matrix(0.05,0,0,0.05,25.950000000000003,0)" xlink:href="#bl"/><use transform="matrix(0.05,0,0,0.05,29.899999999999995,0)" xlink:href="#bb"/><use transform="matrix(0.05,0,0,0.05,33.85,0)" xlink:href="#bm"/><use transform="matrix(0.05,0,0,0.05,42.85,0)" xlink:href="#be"/><use transform="matrix(0.05,0,0,0.05,52.85,0)" xlink:href="#bk"/></g><path d="M210-169c-67 3-38 105-44 169h-31v-121c0-29-5-50-35-48C34-165 62-65 56 0H25l-1-190h30c1 10-1 24 2 32 10-44 99-50 107 0 11-21 27-35 58-36 85-2 47 119 55 194h-31v-121c0-29-5-49-35-48" id="bn"/><path d="M115-194c55 1 70 41 70 98S169 2 115 4C84 4 66-9 55-30l1 105H24l-1-265h31l2 30c10-21 28-34 59-34zm-8 174c40 0 45-34 45-75s-6-73-45-74c-42 0-51 32-51 76 0 43 10 73 51 73" id="bo"/><path d="M103-251c84 0 111 97 45 133-19 10-37 24-39 52H78c0-63 77-55 77-114 0-30-21-42-52-43-32 0-53 17-56 46l-32-2c7-45 34-72 88-72zM77 0v-35h34V0H77" id="bp"/><g id="d"><use transform="matrix(0.05,0,0,0.05,0,0)" xlink:href="#bc"/><use transform="matrix(0.05,0,0,0.05,9,0)" xlink:href="#bd"/><use transform="matrix(0.05,0,0,0.05,19,0)" xlink:href="#bn"/><use transform="matrix(0.05,0,0,0.05,33.95,0)" xlink:href="#bo"/><use transform="matrix(0.05,0,0,0.05,43.95,0)" xlink:href="#bk"/><use transform="matrix(0.05,0,0,0.05,49.900000000000006,0)" xlink:href="#be"/><use transform="matrix(0.05,0,0,0.05,59.900000000000006,0)" xlink:href="#bp"/></g><g id="e"><use transform="matrix(0.05,0,0,0.05,0,0)" xlink:href="#be"/><use transform="matrix(0.05,0,0,0.05,10,0)" xlink:href="#ba"/><use transform="matrix(0.05,0,0,0.05,20,0)" xlink:href="#bf"/><use transform="matrix(0.05,0,0,0.05,29,0)" xlink:href="#bg"/></g><use transform="matrix(0.05,0,0,0.05,0,0)" xlink:href="#bh" id="f"/><g id="g"><use transform="matrix(0.05,0,0,0.05,0,0)" xlink:href="#ba"/><use transform="matrix(0.05,0,0,0.05,10,0)" xlink:href="#bd"/></g><path d="M177-190C167-65 218 103 67 71c-23-6-38-20-44-43l32-5c15 47 100 32 89-28v-30C133-14 115 1 83 1 29 1 15-40 15-95c0-56 16-97 71-98 29-1 48 16 59 35 1-10 0-23 2-32h30zM94-22c36 0 50-32 50-73 0-42-14-75-50-75-39 0-46 34-46 75s6 73 46 73" id="bq"/><g id="h"><use transform="matrix(0.05,0,0,0.05,0,0)" xlink:href="#aZ"/><use transform="matrix(0.05,0,0,0.05,5,0)" xlink:href="#ba"/><use transform="matrix(0.05,0,0,0.05,15,0)" xlink:href="#bq"/><use transform="matrix(0.05,0,0,0.05,25,0)" xlink:href="#bk"/><use transform="matrix(0.05,0,0,0.05,30.950000000000003,0)" xlink:href="#bj"/><use transform="matrix(0.05,0,0,0.05,40.95,0)" xlink:href="#bf"/><use transform="matrix(0.05,0,0,0.05,49.95,0)" xlink:href="#be"/><use transform="matrix(0.05,0,0,0.05,59.95,0)" xlink:href="#bk"/></g><path d="M115-194c53 0 69 39 70 98 0 66-23 100-70 100C84 3 66-7 56-30L54 0H23l1-261h32v101c10-23 28-34 59-34zm-8 174c40 0 45-34 45-75 0-40-5-75-45-74-42 0-51 32-51 76 0 43 10 73 51 73" id="br"/><path d="M68-38c1 34 0 65-14 84H32c9-13 17-26 17-46H33v-38h35" id="bs"/><g id="i"><use transform="matrix(0.05,0,0,0.05,0,0)" xlink:href="#ba"/><use transform="matrix(0.05,0,0,0.05,10,0)" xlink:href="#bd"/><use transform="matrix(0.05,0,0,0.05,20,0)" xlink:href="#bn"/><use transform="matrix(0.05,0,0,0.05,34.95,0)" xlink:href="#br"/><use transform="matrix(0.05,0,0,0.05,44.95,0)" xlink:href="#bk"/><use transform="matrix(0.05,0,0,0.05,50.900000000000006,0)" xlink:href="#bj"/><use transform="matrix(0.05,0,0,0.05,60.900000000000006,0)" xlink:href="#bs"/></g><path d="M84 4C-5 8 30-112 23-190h32v120c0 31 7 50 39 49 72-2 45-101 50-169h31l1 190h-30c-1-10 1-25-2-33-11 22-28 36-60 37" id="bt"/><g id="j"><use transform="matrix(0.05,0,0,0.05,0,0)" xlink:href="#ba"/><use transform="matrix(0.05,0,0,0.05,10,0)" xlink:href="#bt"/><use transform="matrix(0.05,0,0,0.05,20,0)" xlink:href="#bn"/><use transform="matrix(0.05,0,0,0.05,34.95,0)" xlink:href="#bj"/><use transform="matrix(0.05,0,0,0.05,44.95,0)" xlink:href="#bk"/><use transform="matrix(0.05,0,0,0.05,50.900000000000006,0)" xlink:href="#bd"/></g><g id="k"><use transform="matrix(0.05,0,0,0.05,0,0)" xlink:href="#aZ"/><use transform="matrix(0.05,0,0,0.05,5,0)" xlink:href="#bi"/></g><path d="M179-190L93 31C79 59 56 82 12 73V49c39 6 53-20 64-50L1-190h34L92-34l54-156h33" id="bu"/><use transform="matrix(0.05,0,0,0.05,0,0)" xlink:href="#bu" id="l"/><path d="M59-47c-2 24 18 29 38 22v24C64 9 27 4 27-40v-127H5v-23h24l9-43h21v43h35v23H59v120" id="bv"/><g id="m"><use transform="matrix(0.05,0,0,0.05,0,0)" xlink:href="#bv"/><use transform="matrix(0.05,0,0,0.05,5,0)" xlink:href="#bb"/><use transform="matrix(0.05,0,0,0.05,8.95,0)" xlink:href="#bo"/><use transform="matrix(0.05,0,0,0.05,18.95,0)" xlink:href="#bd"/></g><path d="M33 0v-38h34V0H33" id="bw"/><g id="n"><use transform="matrix(0.05,0,0,0.05,0,0)" xlink:href="#bc"/><use transform="matrix(0.05,0,0,0.05,9,0)" xlink:href="#bl"/><use transform="matrix(0.05,0,0,0.05,12.949999999999998,0)" xlink:href="#bb"/><use transform="matrix(0.05,0,0,0.05,16.9,0)" xlink:href="#bj"/><use transform="matrix(0.05,0,0,0.05,26.899999999999995,0)" xlink:href="#ba"/><use transform="matrix(0.05,0,0,0.05,36.9,0)" xlink:href="#bv"/><use transform="matrix(0.05,0,0,0.05,41.9,0)" xlink:href="#bj"/><use transform="matrix(0.05,0,0,0.05,51.900000000000006,0)" xlink:href="#bw"/></g><path d="M240 0l2-218c-23 76-54 145-80 218h-23L58-218 59 0H30v-248h44l77 211c21-75 51-140 76-211h43V0h-30" id="bx"/><g id="o"><use transform="matrix(0.05,0,0,0.05,0,0)" xlink:href="#be"/><use transform="matrix(0.05,0,0,0.05,10,0)" xlink:href="#ba"/><use transform="matrix(0.05,0,0,0.05,20,0)" xlink:href="#bf"/><use transform="matrix(0.05,0,0,0.05,29,0)" xlink:href="#bg"/><use transform="matrix(0.05,0,0,0.05,41.95,0)" xlink:href="#bx"/><use transform="matrix(0.05,0,0,0.05,56.900000000000006,0)" xlink:href="#be"/><use transform="matrix(0.05,0,0,0.05,66.9,0)" xlink:href="#bv"/><use transform="matrix(0.05,0,0,0.05,71.9,0)" xlink:href="#bj"/></g><g id="p"><use transform="matrix(0.05,0,0,0.05,0,0)" xlink:href="#bi"/><use transform="matrix(0.05,0,0,0.05,12.950000000000001,0)" xlink:href="#bj"/><use transform="matrix(0.05,0,0,0.05,22.950000000000003,0)" xlink:href="#bf"/><use transform="matrix(0.05,0,0,0.05,31.950000000000003,0)" xlink:href="#bj"/><use transform="matrix(0.05,0,0,0.05,41.95,0)" xlink:href="#be"/></g><g id="q"><use transform="matrix(0.05,0,0,0.05,0,0)" xlink:href="#bc"/><use transform="matrix(0.05,0,0,0.05,9,0)" xlink:href="#bd"/><use transform="matrix(0.05,0,0,0.05,19,0)" xlink:href="#bn"/><use transform="matrix(0.05,0,0,0.05,33.95,0)" xlink:href="#bo"/><use transform="matrix(0.05,0,0,0.05,43.95,0)" xlink:href="#bk"/><use transform="matrix(0.05,0,0,0.05,49.900000000000006,0)" xlink:href="#be"/><use transform="matrix(0.05,0,0,0.05,59.900000000000006,0)" xlink:href="#bk"/></g><g id="r"><use transform="matrix(0.05,0,0,0.05,0,0)" xlink:href="#bl"/><use transform="matrix(0.05,0,0,0.05,3.95,0)" xlink:href="#bb"/><use transform="matrix(0.05,0,0,0.05,7.9,0)" xlink:href="#br"/><use transform="matrix(0.05,0,0,0.05,17.9,0)" xlink:href="#bk"/><use transform="matrix(0.05,0,0,0.05,23.849999999999998,0)" xlink:href="#bd"/><use transform="matrix(0.05,0,0,0.05,33.849999999999994,0)" xlink:href="#bf"/></g><path d="M85-194c31 0 48 13 60 33l-1-100h32l1 261h-30c-2-10 0-23-3-31C134-8 116 4 85 4 32 4 16-35 15-94c0-66 23-100 70-100zm9 24c-40 0-46 34-46 75 0 40 6 74 45 74 42 0 51-32 51-76 0-42-9-74-50-73" id="by"/><g id="s"><use transform="matrix(0.05,0,0,0.05,0,0)" xlink:href="#by"/><use transform="matrix(0.05,0,0,0.05,10,0)" xlink:href="#bj"/></g><g id="t"><use transform="matrix(0.05,0,0,0.05,0,0)" xlink:href="#bx"/><use transform="matrix(0.05,0,0,0.05,14.950000000000001,0)" xlink:href="#be"/><use transform="matrix(0.05,0,0,0.05,24.950000000000003,0)" xlink:href="#bv"/><use transform="matrix(0.05,0,0,0.05,29.950000000000003,0)" xlink:href="#bj"/><use transform="matrix(0.05,0,0,0.05,39.95,0)" xlink:href="#bn"/><use transform="matrix(0.05,0,0,0.05,54.900000000000006,0)" xlink:href="#be"/><use transform="matrix(0.05,0,0,0.05,64.9,0)" xlink:href="#bv"/><use transform="matrix(0.05,0,0,0.05,69.9,0)" xlink:href="#bb"/><use transform="matrix(0.05,0,0,0.05,73.85000000000001,0)" xlink:href="#bc"/><use transform="matrix(0.05,0,0,0.05,82.85000000000001,0)" xlink:href="#be"/><use transform="matrix(0.05,0,0,0.05,92.85000000000001,0)" xlink:href="#bf"/><use transform="matrix(0.05,0,0,0.05,101.85000000000001,0)" xlink:href="#bp"/></g><g id="u"><use transform="matrix(0.05,0,0,0.05,0,0)" xlink:href="#bc"/><use transform="matrix(0.05,0,0,0.05,9,0)" xlink:href="#be"/><use transform="matrix(0.05,0,0,0.05,19,0)" xlink:href="#ba"/><use transform="matrix(0.05,0,0,0.05,29,0)" xlink:href="#bv"/><use transform="matrix(0.05,0,0,0.05,34,0)" xlink:href="#bb"/><use transform="matrix(0.05,0,0,0.05,37.95,0)" xlink:href="#bx"/><use transform="matrix(0.05,0,0,0.05,52.900000000000006,0)" xlink:href="#be"/><use transform="matrix(0.05,0,0,0.05,62.900000000000006,0)" xlink:href="#bv"/><use transform="matrix(0.05,0,0,0.05,67.9,0)" xlink:href="#bj"/></g><path d="M212-179c-10-28-35-45-73-45-59 0-87 40-87 99 0 60 29 101 89 101 43 0 62-24 78-52l27 14C228-24 195 4 139 4 59 4 22-46 18-125c-6-104 99-153 187-111 19 9 31 26 39 46" id="bz"/><g id="v"><use transform="matrix(0.05,0,0,0.05,0,0)" xlink:href="#bz"/><use transform="matrix(0.05,0,0,0.05,12.950000000000001,0)" xlink:href="#bt"/><use transform="matrix(0.05,0,0,0.05,22.950000000000003,0)" xlink:href="#be"/><use transform="matrix(0.05,0,0,0.05,32.95,0)" xlink:href="#ba"/><use transform="matrix(0.05,0,0,0.05,42.95,0)" xlink:href="#bv"/><use transform="matrix(0.05,0,0,0.05,47.95,0)" xlink:href="#bd"/><use transform="matrix(0.05,0,0,0.05,57.95,0)" xlink:href="#bf"/></g><g id="w"><use transform="matrix(0.05,0,0,0.05,0,0)" xlink:href="#bl"/><use transform="matrix(0.05,0,0,0.05,3.95,0)" xlink:href="#bb"/><use transform="matrix(0.05,0,0,0.05,7.9,0)" xlink:href="#br"/><use transform="matrix(0.05,0,0,0.05,17.9,0)" xlink:href="#bk"/><use transform="matrix(0.05,0,0,0.05,23.849999999999998,0)" xlink:href="#bd"/><use transform="matrix(0.05,0,0,0.05,33.849999999999994,0)" xlink:href="#bf"/></g><path d="M145-31C134-9 116 4 85 4 32 4 16-35 15-94c0-59 17-99 70-100 32-1 48 14 60 33 0-11-1-24 2-32h30l-1 268h-32zM93-21c41 0 51-33 51-76s-8-73-50-73c-40 0-46 35-46 75s5 74 45 74" id="bA"/><g id="x"><use transform="matrix(0.05,0,0,0.05,0,0)" xlink:href="#bA"/><use transform="matrix(0.05,0,0,0.05,10,0)" xlink:href="#bt"/><use transform="matrix(0.05,0,0,0.05,20,0)" xlink:href="#bb"/><use transform="matrix(0.05,0,0,0.05,23.95,0)" xlink:href="#bj"/><use transform="matrix(0.05,0,0,0.05,33.95,0)" xlink:href="#bk"/><use transform="matrix(0.05,0,0,0.05,39.900000000000006,0)" xlink:href="#bj"/></g><g id="y"><use transform="matrix(0.05,0,0,0.05,0,0)" xlink:href="#bc"/><use transform="matrix(0.05,0,0,0.05,9,0)" xlink:href="#bd"/><use transform="matrix(0.05,0,0,0.05,19,0)" xlink:href="#bn"/><use transform="matrix(0.05,0,0,0.05,33.95,0)" xlink:href="#bo"/><use transform="matrix(0.05,0,0,0.05,43.95,0)" xlink:href="#bk"/><use transform="matrix(0.05,0,0,0.05,49.900000000000006,0)" xlink:href="#be"/><use transform="matrix(0.05,0,0,0.05,59.900000000000006,0)" xlink:href="#bk"/><use transform="matrix(0.05,0,0,0.05,65.85000000000001,0)" xlink:href="#bp"/></g><path d="M185-189c-5-48-123-54-124 2 14 75 158 14 163 119 3 78-121 87-175 55-17-10-28-26-33-46l33-7c5 56 141 63 141-1 0-78-155-14-162-118-5-82 145-84 179-34 5 7 8 16 11 25" id="bB"/><path d="M34 0v-190h32V0H34zM24-211c8-23 27-35 38-54h36v5l-58 49H24" id="bC"/><g id="z"><use transform="matrix(0.05,0,0,0.05,0,0)" xlink:href="#bB"/><use transform="matrix(0.05,0,0,0.05,12,0)" xlink:href="#bC"/></g><path d="M101-251c68 0 85 55 85 127S166 4 100 4C33 4 14-52 14-124c0-73 17-127 87-127zm-1 229c47 0 54-49 54-102s-4-102-53-102c-51 0-55 48-55 102 0 53 5 102 54 102" id="bD"/><use transform="matrix(0.05,0,0,0.05,0,0)" xlink:href="#bD" id="A"/><g id="B"><use transform="matrix(0.05,0,0,0.05,0,0)" xlink:href="#ba"/><use transform="matrix(0.05,0,0,0.05,10,0)" xlink:href="#bd"/></g><g id="C"><use transform="matrix(0.05,0,0,0.05,0,0)" xlink:href="#be"/><use transform="matrix(0.05,0,0,0.05,10,0)" xlink:href="#ba"/><use transform="matrix(0.05,0,0,0.05,20,0)" xlink:href="#bf"/><use transform="matrix(0.05,0,0,0.05,29,0)" xlink:href="#bg"/><use transform="matrix(0.05,0,0,0.05,41.95,0)" xlink:href="#bB"/><use transform="matrix(0.05,0,0,0.05,53.95,0)" xlink:href="#bd"/><use transform="matrix(0.05,0,0,0.05,63.95,0)" xlink:href="#bc"/></g><g id="D"><use transform="matrix(0.05,0,0,0.05,0,0)" xlink:href="#bB"/><use transform="matrix(0.05,0,0,0.05,12,0)" xlink:href="#bd"/><use transform="matrix(0.05,0,0,0.05,22,0)" xlink:href="#bc"/><use transform="matrix(0.05,0,0,0.05,31,0)" xlink:href="#bb"/><use transform="matrix(0.05,0,0,0.05,34.95,0)" xlink:href="#be"/><use transform="matrix(0.05,0,0,0.05,44.95,0)" xlink:href="#bl"/><use transform="matrix(0.05,0,0,0.05,48.900000000000006,0)" xlink:href="#bj"/><use transform="matrix(0.05,0,0,0.05,58.900000000000006,0)" xlink:href="#bf"/><use transform="matrix(0.05,0,0,0.05,67.9,0)" xlink:href="#bp"/></g><g id="E"><use transform="matrix(0.05,0,0,0.05,0,0)" xlink:href="#bc"/><use transform="matrix(0.05,0,0,0.05,9,0)" xlink:href="#be"/><use transform="matrix(0.05,0,0,0.05,19,0)" xlink:href="#ba"/><use transform="matrix(0.05,0,0,0.05,29,0)" xlink:href="#bv"/><use transform="matrix(0.05,0,0,0.05,34,0)" xlink:href="#bb"/><use transform="matrix(0.05,0,0,0.05,37.95,0)" xlink:href="#bB"/><use transform="matrix(0.05,0,0,0.05,49.95,0)" xlink:href="#bd"/><use transform="matrix(0.05,0,0,0.05,59.95,0)" xlink:href="#bc"/><use transform="matrix(0.05,0,0,0.05,68.95,0)" xlink:href="#bb"/></g><path d="M63-220v92h138v28H63V0H30v-248h175v28H63" id="bE"/><g id="F"><use transform="matrix(0.05,0,0,0.05,0,0)" xlink:href="#be"/><use transform="matrix(0.05,0,0,0.05,10,0)" xlink:href="#ba"/><use transform="matrix(0.05,0,0,0.05,20,0)" xlink:href="#bf"/><use transform="matrix(0.05,0,0,0.05,29,0)" xlink:href="#bg"/><use transform="matrix(0.05,0,0,0.05,41.95,0)" xlink:href="#bE"/><use transform="matrix(0.05,0,0,0.05,52.900000000000006,0)" xlink:href="#bb"/><use transform="matrix(0.05,0,0,0.05,56.85,0)" xlink:href="#bf"/><use transform="matrix(0.05,0,0,0.05,65.85000000000001,0)" xlink:href="#bb"/><use transform="matrix(0.05,0,0,0.05,69.80000000000001,0)" xlink:href="#bc"/></g><g id="G"><use transform="matrix(0.05,0,0,0.05,0,0)" xlink:href="#by"/><use transform="matrix(0.05,0,0,0.05,10,0)" xlink:href="#bj"/></g><g id="H"><use transform="matrix(0.05,0,0,0.05,0,0)" xlink:href="#bE"/><use transform="matrix(0.05,0,0,0.05,10.950000000000001,0)" xlink:href="#bb"/><use transform="matrix(0.05,0,0,0.05,14.9,0)" xlink:href="#bf"/><use transform="matrix(0.05,0,0,0.05,23.900000000000002,0)" xlink:href="#bb"/><use transform="matrix(0.05,0,0,0.05,27.85,0)" xlink:href="#bc"/><use transform="matrix(0.05,0,0,0.05,36.85,0)" xlink:href="#be"/><use transform="matrix(0.05,0,0,0.05,46.85,0)" xlink:href="#bp"/></g><g id="I"><use transform="matrix(0.05,0,0,0.05,0,0)" xlink:href="#bc"/><use transform="matrix(0.05,0,0,0.05,9,0)" xlink:href="#be"/><use transform="matrix(0.05,0,0,0.05,19,0)" xlink:href="#ba"/><use transform="matrix(0.05,0,0,0.05,29,0)" xlink:href="#bv"/><use transform="matrix(0.05,0,0,0.05,34,0)" xlink:href="#bb"/><use transform="matrix(0.05,0,0,0.05,37.95,0)" xlink:href="#bE"/><use transform="matrix(0.05,0,0,0.05,48.900000000000006,0)" xlink:href="#bb"/><use transform="matrix(0.05,0,0,0.05,52.85,0)" xlink:href="#bf"/><use transform="matrix(0.05,0,0,0.05,61.85,0)" xlink:href="#bb"/><use transform="matrix(0.05,0,0,0.05,65.80000000000001,0)" xlink:href="#bc"/></g><path d="M190 0L58-211 59 0H30v-248h39L202-35l-2-213h31V0h-41" id="bF"/><g id="J"><use transform="matrix(0.05,0,0,0.05,0,0)" xlink:href="#be"/><use transform="matrix(0.05,0,0,0.05,10,0)" xlink:href="#ba"/><use transform="matrix(0.05,0,0,0.05,20,0)" xlink:href="#bf"/><use transform="matrix(0.05,0,0,0.05,29,0)" xlink:href="#bF"/><use transform="matrix(0.05,0,0,0.05,41.95,0)" xlink:href="#bj"/><use transform="matrix(0.05,0,0,0.05,51.95,0)" xlink:href="#bg"/></g><path d="M108 0H70L1-190h34L89-25l56-165h34" id="bG"/><g id="K"><use transform="matrix(0.05,0,0,0.05,0,0)" xlink:href="#ba"/><use transform="matrix(0.05,0,0,0.05,10,0)" xlink:href="#bt"/><use transform="matrix(0.05,0,0,0.05,20,0)" xlink:href="#bj"/><use transform="matrix(0.05,0,0,0.05,30,0)" xlink:href="#bG"/><use transform="matrix(0.05,0,0,0.05,39,0)" xlink:href="#bd"/><use transform="matrix(0.05,0,0,0.05,49,0)" xlink:href="#bf"/></g><g id="L"><use transform="matrix(0.05,0,0,0.05,0,0)" xlink:href="#bl"/><use transform="matrix(0.05,0,0,0.05,3.95,0)" xlink:href="#bb"/><use transform="matrix(0.05,0,0,0.05,7.9,0)" xlink:href="#br"/><use transform="matrix(0.05,0,0,0.05,17.9,0)" xlink:href="#bk"/><use transform="matrix(0.05,0,0,0.05,23.849999999999998,0)" xlink:href="#bd"/><use transform="matrix(0.05,0,0,0.05,33.849999999999994,0)" xlink:href="#bf"/><use transform="matrix(0.05,0,0,0.05,42.849999999999994,0)" xlink:href="#bp"/></g><g id="M"><use transform="matrix(0.05,0,0,0.05,0,0)" xlink:href="#bc"/><use transform="matrix(0.05,0,0,0.05,9,0)" xlink:href="#be"/><use transform="matrix(0.05,0,0,0.05,19,0)" xlink:href="#ba"/><use transform="matrix(0.05,0,0,0.05,29,0)" xlink:href="#bv"/><use transform="matrix(0.05,0,0,0.05,34,0)" xlink:href="#bb"/><use transform="matrix(0.05,0,0,0.05,37.95,0)" xlink:href="#bF"/><use transform="matrix(0.05,0,0,0.05,50.900000000000006,0)" xlink:href="#bj"/><use transform="matrix(0.05,0,0,0.05,60.900000000000006,0)" xlink:href="#bg"/></g><use transform="matrix(0.05,0,0,0.05,0,0)" xlink:href="#bD" id="N"/><path d="M234-2c-28 10-62 0-77-18C117 19 8 12 13-65c3-43 29-61 60-76-25-40-17-114 47-108 35 3 59 15 59 50 0 44-40 53-71 69 14 26 32 50 51 72 14-21 24-43 30-72l26 8c-9 33-21 57-38 82 13 13 33 22 57 15v23zM97-151c25-10 52-18 56-48-1-18-13-29-33-29-42 0-39 50-23 77zM42-66c-3 51 71 58 98 28-20-24-41-51-56-80-23 10-40 24-42 52" id="bH"/><g id="O"><use transform="matrix(0.05,0,0,0.05,0,0)" xlink:href="#bH"/><use transform="matrix(0.05,0,0,0.05,12,0)" xlink:href="#bH"/></g><g id="P"><use transform="matrix(0.05,0,0,0.05,0,0)" xlink:href="#bo"/><use transform="matrix(0.05,0,0,0.05,10,0)" xlink:href="#bk"/><use transform="matrix(0.05,0,0,0.05,15.949999999999998,0)" xlink:href="#bj"/><use transform="matrix(0.05,0,0,0.05,25.950000000000003,0)" xlink:href="#bc"/><use transform="matrix(0.05,0,0,0.05,34.95,0)" xlink:href="#bb"/><use transform="matrix(0.05,0,0,0.05,38.900000000000006,0)" xlink:href="#bd"/><use transform="matrix(0.05,0,0,0.05,48.900000000000006,0)" xlink:href="#bF"/><use transform="matrix(0.05,0,0,0.05,61.85,0)" xlink:href="#bj"/><use transform="matrix(0.05,0,0,0.05,71.85000000000001,0)" xlink:href="#bg"/></g><g id="Q"><use transform="matrix(0.05,0,0,0.05,0,0)" xlink:href="#bF"/><use transform="matrix(0.05,0,0,0.05,12.950000000000001,0)" xlink:href="#bd"/></g><g id="R"><use transform="matrix(0.05,0,0,0.05,0,0)" xlink:href="#bc"/><use transform="matrix(0.05,0,0,0.05,9,0)" xlink:href="#bd"/><use transform="matrix(0.05,0,0,0.05,19,0)" xlink:href="#bn"/><use transform="matrix(0.05,0,0,0.05,33.95,0)" xlink:href="#bo"/><use transform="matrix(0.05,0,0,0.05,43.95,0)" xlink:href="#bk"/><use transform="matrix(0.05,0,0,0.05,49.900000000000006,0)" xlink:href="#be"/><use transform="matrix(0.05,0,0,0.05,59.900000000000006,0)" xlink:href="#bk"/><use transform="matrix(0.05,0,0,0.05,65.85000000000001,0)" xlink:href="#bp"/></g><g id="S"><use transform="matrix(0.05,0,0,0.05,0,0)" xlink:href="#bo"/><use transform="matrix(0.05,0,0,0.05,10,0)" xlink:href="#bk"/><use transform="matrix(0.05,0,0,0.05,15.949999999999998,0)" xlink:href="#bj"/><use transform="matrix(0.05,0,0,0.05,25.950000000000003,0)" xlink:href="#bc"/><use transform="matrix(0.05,0,0,0.05,34.95,0)" xlink:href="#bb"/><use transform="matrix(0.05,0,0,0.05,38.900000000000006,0)" xlink:href="#bd"/></g><g id="T"><use transform="matrix(0.05,0,0,0.05,0,0)" xlink:href="#bl"/><use transform="matrix(0.05,0,0,0.05,3.95,0)" xlink:href="#bd"/><use transform="matrix(0.05,0,0,0.05,13.949999999999998,0)" xlink:href="#bf"/></g><g id="U"><use transform="matrix(0.05,0,0,0.05,0,0)" xlink:href="#bB"/><use transform="matrix(0.05,0,0,0.05,12,0)" xlink:href="#bb"/></g><g id="V"><use transform="matrix(0.05,0,0,0.05,0,0)" xlink:href="#bc"/><use transform="matrix(0.05,0,0,0.05,9,0)" xlink:href="#bt"/><use transform="matrix(0.05,0,0,0.05,19,0)" xlink:href="#bf"/><use transform="matrix(0.05,0,0,0.05,28,0)" xlink:href="#bv"/><use transform="matrix(0.05,0,0,0.05,33,0)" xlink:href="#bd"/><use transform="matrix(0.05,0,0,0.05,43,0)" xlink:href="#bn"/><use transform="matrix(0.05,0,0,0.05,57.95,0)" xlink:href="#bj"/><use transform="matrix(0.05,0,0,0.05,67.95,0)" xlink:href="#bk"/><use transform="matrix(0.05,0,0,0.05,73.9,0)" xlink:href="#ba"/><use transform="matrix(0.05,0,0,0.05,83.9,0)" xlink:href="#bt"/><use transform="matrix(0.05,0,0,0.05,93.9,0)" xlink:href="#bn"/><use transform="matrix(0.05,0,0,0.05,108.85000000000001,0)" xlink:href="#br"/></g><g id="W"><use transform="matrix(0.05,0,0,0.05,0,0)" xlink:href="#aZ"/><use transform="matrix(0.05,0,0,0.05,5,0)" xlink:href="#ba"/><use transform="matrix(0.05,0,0,0.05,15,0)" xlink:href="#bq"/><use transform="matrix(0.05,0,0,0.05,25,0)" xlink:href="#bk"/><use transform="matrix(0.05,0,0,0.05,30.950000000000003,0)" xlink:href="#bj"/><use transform="matrix(0.05,0,0,0.05,40.95,0)" xlink:href="#bf"/><use transform="matrix(0.05,0,0,0.05,49.95,0)" xlink:href="#bj"/></g><g id="X"><use transform="matrix(0.05,0,0,0.05,0,0)" xlink:href="#bc"/><use transform="matrix(0.05,0,0,0.05,9,0)" xlink:href="#bl"/><use transform="matrix(0.05,0,0,0.05,12.949999999999998,0)" xlink:href="#bb"/><use transform="matrix(0.05,0,0,0.05,16.9,0)" xlink:href="#bj"/><use transform="matrix(0.05,0,0,0.05,26.899999999999995,0)" xlink:href="#ba"/><use transform="matrix(0.05,0,0,0.05,36.9,0)" xlink:href="#bv"/><use transform="matrix(0.05,0,0,0.05,41.9,0)" xlink:href="#bj"/><use transform="matrix(0.05,0,0,0.05,51.900000000000006,0)" xlink:href="#bp"/></g><g id="Y"><use transform="matrix(0.05,0,0,0.05,0,0)" xlink:href="#by"/><use transform="matrix(0.05,0,0,0.05,10,0)" xlink:href="#bj"/><use transform="matrix(0.05,0,0,0.05,20,0)" xlink:href="#bf"/><use transform="matrix(0.05,0,0,0.05,29,0)" xlink:href="#bc"/><use transform="matrix(0.05,0,0,0.05,38,0)" xlink:href="#bt"/><use transform="matrix(0.05,0,0,0.05,48,0)" xlink:href="#bj"/><use transform="matrix(0.05,0,0,0.05,58,0)" xlink:href="#ba"/><use transform="matrix(0.05,0,0,0.05,68,0)" xlink:href="#bv"/><use transform="matrix(0.05,0,0,0.05,73,0)" xlink:href="#bd"/></g><path d="M27 0v-27h64v-190l-56 39v-29l58-41h29v221h61V0H27" id="bI"/><path d="M252-156c43 0 55 33 55 80 0 46-13 78-56 78-42 0-55-33-55-78 0-48 12-80 56-80zM93 0H65l162-248h28zM13-171c-1-47 13-79 56-79s55 33 55 79-13 79-55 79c-43 0-56-33-56-79zM251-17c28 0 30-29 30-59 0-31-1-60-29-60-29 0-31 29-31 60 0 29 2 59 30 59zM69-112c27 0 28-30 29-59 0-31-1-60-29-60-29 0-30 30-30 60s2 59 30 59" id="bJ"/><g id="Z"><use transform="matrix(0.05,0,0,0.05,0,0)" xlink:href="#bI"/><use transform="matrix(0.05,0,0,0.05,10,0)" xlink:href="#bD"/><use transform="matrix(0.05,0,0,0.05,20,0)" xlink:href="#bJ"/></g><path d="M101-251c82-7 93 87 43 132L82-64C71-53 59-42 53-27h129V0H18c2-99 128-94 128-182 0-28-16-43-45-43s-46 15-49 41l-32-3c6-41 34-60 81-64" id="bK"/><g id="aa"><use transform="matrix(0.05,0,0,0.05,0,0)" xlink:href="#bK"/><use transform="matrix(0.05,0,0,0.05,10,0)" xlink:href="#bD"/><use transform="matrix(0.05,0,0,0.05,20,0)" xlink:href="#bJ"/></g><path d="M126-127c33 6 58 20 58 59 0 88-139 92-164 29-3-8-5-16-6-25l32-3c6 27 21 44 54 44 32 0 52-15 52-46 0-38-36-46-79-43v-28c39 1 72-4 72-42 0-27-17-43-46-43-28 0-47 15-49 41l-32-3c6-42 35-63 81-64 48-1 79 21 79 65 0 36-21 52-52 59" id="bL"/><g id="ab"><use transform="matrix(0.05,0,0,0.05,0,0)" xlink:href="#bL"/><use transform="matrix(0.05,0,0,0.05,10,0)" xlink:href="#bD"/><use transform="matrix(0.05,0,0,0.05,20,0)" xlink:href="#bJ"/></g><g id="ac"><use transform="matrix(0.05,0,0,0.05,0,0)" xlink:href="#bD"/><use transform="matrix(0.05,0,0,0.05,10,0)" xlink:href="#bJ"/></g><use transform="matrix(0.05,0,0,0.05,0,0)" xlink:href="#bK" id="ad"/><use transform="matrix(0.05,0,0,0.05,0,0)" xlink:href="#bL" id="ae"/><use transform="matrix(0.05,0,0,0.05,0,0)" xlink:href="#bI" id="af"/><path d="M101-234c-31-9-42 10-38 44h38v23H63V0H32v-167H5v-23h27c-7-52 17-82 69-68v24" id="bM"/><g id="ag"><use transform="matrix(0.05,0,0,0.05,0,0)" xlink:href="#by"/><use transform="matrix(0.05,0,0,0.05,10,0)" xlink:href="#bj"/><use transform="matrix(0.05,0,0,0.05,20,0)" xlink:href="#bM"/><use transform="matrix(0.05,0,0,0.05,25,0)" xlink:href="#be"/><use transform="matrix(0.05,0,0,0.05,35,0)" xlink:href="#bt"/><use transform="matrix(0.05,0,0,0.05,45,0)" xlink:href="#bl"/><use transform="matrix(0.05,0,0,0.05,48.95,0)" xlink:href="#bv"/></g><g id="ah"><use transform="matrix(0.05,0,0,0.05,0,0)" xlink:href="#bv"/><use transform="matrix(0.05,0,0,0.05,5,0)" xlink:href="#bd"/><use transform="matrix(0.05,0,0,0.05,15,0)" xlink:href="#bv"/><use transform="matrix(0.05,0,0,0.05,20,0)" xlink:href="#be"/><use transform="matrix(0.05,0,0,0.05,30,0)" xlink:href="#bl"/><use transform="matrix(0.05,0,0,0.05,33.95,0)" xlink:href="#bh"/></g><path d="M87 75C49 33 22-17 22-94c0-76 28-126 65-167h31c-38 41-64 92-64 168S80 34 118 75H87" id="bN"/><g id="ai"><use transform="matrix(0.05,0,0,0.05,0,0)" xlink:href="#bN"/><use transform="matrix(0.05,0,0,0.05,5.95,0)" xlink:href="#bN"/><use transform="matrix(0.05,0,0,0.05,11.9,0)" xlink:href="#bc"/><use transform="matrix(0.05,0,0,0.05,20.9,0)" xlink:href="#be"/><use transform="matrix(0.05,0,0,0.05,30.899999999999995,0)" xlink:href="#ba"/><use transform="matrix(0.05,0,0,0.05,40.9,0)" xlink:href="#bv"/><use transform="matrix(0.05,0,0,0.05,45.9,0)" xlink:href="#bb"/><use transform="matrix(0.05,0,0,0.05,49.85,0)" xlink:href="#by"/><use transform="matrix(0.05,0,0,0.05,59.85,0)" xlink:href="#be"/><use transform="matrix(0.05,0,0,0.05,69.85,0)" xlink:href="#by"/><use transform="matrix(0.05,0,0,0.05,79.85,0)" xlink:href="#bx"/><use transform="matrix(0.05,0,0,0.05,94.8,0)" xlink:href="#be"/><use transform="matrix(0.05,0,0,0.05,104.80000000000001,0)" xlink:href="#bv"/><use transform="matrix(0.05,0,0,0.05,109.80000000000001,0)" xlink:href="#bj"/></g><path d="M80-196l47-18 7 23-49 13 32 44-20 13-27-46-27 45-21-12 33-44-49-13 8-23 47 19-2-53h23" id="bO"/><use transform="matrix(0.05,0,0,0.05,0,0)" xlink:href="#bO" id="aj"/><path d="M33-261c38 41 65 92 65 168S71 34 33 75H2C39 34 66-17 66-93S39-220 2-261h31" id="bP"/><g id="ak"><use transform="matrix(0.05,0,0,0.05,0,0)" xlink:href="#bo"/><use transform="matrix(0.05,0,0,0.05,10,0)" xlink:href="#bk"/><use transform="matrix(0.05,0,0,0.05,15.949999999999998,0)" xlink:href="#bj"/><use transform="matrix(0.05,0,0,0.05,25.950000000000003,0)" xlink:href="#bc"/><use transform="matrix(0.05,0,0,0.05,34.95,0)" xlink:href="#bb"/><use transform="matrix(0.05,0,0,0.05,38.900000000000006,0)" xlink:href="#bd"/><use transform="matrix(0.05,0,0,0.05,48.900000000000006,0)" xlink:href="#bx"/><use transform="matrix(0.05,0,0,0.05,63.85,0)" xlink:href="#be"/><use transform="matrix(0.05,0,0,0.05,73.85000000000001,0)" xlink:href="#bv"/><use transform="matrix(0.05,0,0,0.05,78.85000000000001,0)" xlink:href="#bj"/><use transform="matrix(0.05,0,0,0.05,88.85000000000001,0)" xlink:href="#bP"/></g><path d="M118-107v75H92v-75H18v-26h74v-75h26v75h74v26h-74" id="bQ"/><use transform="matrix(0.05,0,0,0.05,0,0)" xlink:href="#bQ" id="al"/><g id="am"><use transform="matrix(0.05,0,0,0.05,0,0)" xlink:href="#bN"/><use transform="matrix(0.05,0,0,0.05,5.95,0)" xlink:href="#bc"/><use transform="matrix(0.05,0,0,0.05,14.949999999999998,0)" xlink:href="#be"/><use transform="matrix(0.05,0,0,0.05,24.95,0)" xlink:href="#ba"/><use transform="matrix(0.05,0,0,0.05,34.95,0)" xlink:href="#bv"/><use transform="matrix(0.05,0,0,0.05,39.95,0)" xlink:href="#bb"/><use transform="matrix(0.05,0,0,0.05,43.900000000000006,0)" xlink:href="#by"/><use transform="matrix(0.05,0,0,0.05,53.900000000000006,0)" xlink:href="#be"/><use transform="matrix(0.05,0,0,0.05,63.900000000000006,0)" xlink:href="#by"/><use transform="matrix(0.05,0,0,0.05,73.9,0)" xlink:href="#bB"/><use transform="matrix(0.05,0,0,0.05,85.9,0)" xlink:href="#bd"/><use transform="matrix(0.05,0,0,0.05,95.9,0)" xlink:href="#bc"/></g><use transform="matrix(0.05,0,0,0.05,0,0)" xlink:href="#bO" id="an"/><g id="ao"><use transform="matrix(0.05,0,0,0.05,0,0)" xlink:href="#bo"/><use transform="matrix(0.05,0,0,0.05,10,0)" xlink:href="#bk"/><use transform="matrix(0.05,0,0,0.05,15.949999999999998,0)" xlink:href="#bj"/><use transform="matrix(0.05,0,0,0.05,25.950000000000003,0)" xlink:href="#bc"/><use transform="matrix(0.05,0,0,0.05,34.95,0)" xlink:href="#bb"/><use transform="matrix(0.05,0,0,0.05,38.900000000000006,0)" xlink:href="#bd"/><use transform="matrix(0.05,0,0,0.05,48.900000000000006,0)" xlink:href="#bB"/><use transform="matrix(0.05,0,0,0.05,60.900000000000006,0)" xlink:href="#bd"/><use transform="matrix(0.05,0,0,0.05,70.9,0)" xlink:href="#bc"/><use transform="matrix(0.05,0,0,0.05,79.9,0)" xlink:href="#bP"/></g><g id="ap"><use transform="matrix(0.05,0,0,0.05,0,0)" xlink:href="#bN"/><use transform="matrix(0.05,0,0,0.05,5.95,0)" xlink:href="#bc"/><use transform="matrix(0.05,0,0,0.05,14.949999999999998,0)" xlink:href="#be"/><use transform="matrix(0.05,0,0,0.05,24.95,0)" xlink:href="#ba"/><use transform="matrix(0.05,0,0,0.05,34.95,0)" xlink:href="#bv"/><use transform="matrix(0.05,0,0,0.05,39.95,0)" xlink:href="#bb"/><use transform="matrix(0.05,0,0,0.05,43.900000000000006,0)" xlink:href="#by"/><use transform="matrix(0.05,0,0,0.05,53.900000000000006,0)" xlink:href="#be"/><use transform="matrix(0.05,0,0,0.05,63.900000000000006,0)" xlink:href="#by"/><use transform="matrix(0.05,0,0,0.05,73.9,0)" xlink:href="#bE"/><use transform="matrix(0.05,0,0,0.05,84.85000000000001,0)" xlink:href="#bb"/><use transform="matrix(0.05,0,0,0.05,88.80000000000001,0)" xlink:href="#bf"/><use transform="matrix(0.05,0,0,0.05,97.80000000000001,0)" xlink:href="#bb"/><use transform="matrix(0.05,0,0,0.05,101.75000000000001,0)" xlink:href="#bc"/></g><g id="aq"><use transform="matrix(0.05,0,0,0.05,0,0)" xlink:href="#bE"/><use transform="matrix(0.05,0,0,0.05,10.950000000000001,0)" xlink:href="#bb"/><use transform="matrix(0.05,0,0,0.05,14.9,0)" xlink:href="#bf"/><use transform="matrix(0.05,0,0,0.05,23.900000000000002,0)" xlink:href="#bb"/><use transform="matrix(0.05,0,0,0.05,27.85,0)" xlink:href="#bc"/><use transform="matrix(0.05,0,0,0.05,36.85,0)" xlink:href="#bP"/></g><use transform="matrix(0.05,0,0,0.05,0,0)" xlink:href="#bQ" id="ar"/><g id="as"><use transform="matrix(0.05,0,0,0.05,0,0)" xlink:href="#bN"/><use transform="matrix(0.05,0,0,0.05,5.95,0)" xlink:href="#bc"/><use transform="matrix(0.05,0,0,0.05,14.949999999999998,0)" xlink:href="#be"/><use transform="matrix(0.05,0,0,0.05,24.95,0)" xlink:href="#ba"/><use transform="matrix(0.05,0,0,0.05,34.95,0)" xlink:href="#bv"/><use transform="matrix(0.05,0,0,0.05,39.95,0)" xlink:href="#bb"/><use transform="matrix(0.05,0,0,0.05,43.900000000000006,0)" xlink:href="#by"/><use transform="matrix(0.05,0,0,0.05,53.900000000000006,0)" xlink:href="#be"/><use transform="matrix(0.05,0,0,0.05,63.900000000000006,0)" xlink:href="#by"/><use transform="matrix(0.05,0,0,0.05,73.9,0)" xlink:href="#bF"/><use transform="matrix(0.05,0,0,0.05,86.85000000000001,0)" xlink:href="#bt"/><use transform="matrix(0.05,0,0,0.05,96.85000000000001,0)" xlink:href="#bj"/><use transform="matrix(0.05,0,0,0.05,106.85000000000001,0)" xlink:href="#bG"/><use transform="matrix(0.05,0,0,0.05,115.85000000000001,0)" xlink:href="#be"/></g><g id="at"><use transform="matrix(0.05,0,0,0.05,0,0)" xlink:href="#bo"/><use transform="matrix(0.05,0,0,0.05,10,0)" xlink:href="#bk"/><use transform="matrix(0.05,0,0,0.05,15.949999999999998,0)" xlink:href="#bj"/><use transform="matrix(0.05,0,0,0.05,25.950000000000003,0)" xlink:href="#bc"/><use transform="matrix(0.05,0,0,0.05,34.95,0)" xlink:href="#bb"/><use transform="matrix(0.05,0,0,0.05,38.900000000000006,0)" xlink:href="#bd"/><use transform="matrix(0.05,0,0,0.05,48.900000000000006,0)" xlink:href="#bF"/><use transform="matrix(0.05,0,0,0.05,61.85,0)" xlink:href="#bt"/><use transform="matrix(0.05,0,0,0.05,71.85000000000001,0)" xlink:href="#bj"/><use transform="matrix(0.05,0,0,0.05,81.85000000000001,0)" xlink:href="#bG"/><use transform="matrix(0.05,0,0,0.05,90.85000000000001,0)" xlink:href="#be"/><use transform="matrix(0.05,0,0,0.05,100.85000000000001,0)" xlink:href="#bP"/></g><g id="au"><use transform="matrix(0.05,0,0,0.05,0,0)" xlink:href="#by"/><use transform="matrix(0.05,0,0,0.05,10,0)" xlink:href="#bj"/><use transform="matrix(0.05,0,0,0.05,20,0)" xlink:href="#bf"/><use transform="matrix(0.05,0,0,0.05,29,0)" xlink:href="#bc"/><use transform="matrix(0.05,0,0,0.05,38,0)" xlink:href="#bt"/><use transform="matrix(0.05,0,0,0.05,48,0)" xlink:href="#bj"/><use transform="matrix(0.05,0,0,0.05,58,0)" xlink:href="#ba"/><use transform="matrix(0.05,0,0,0.05,68,0)" xlink:href="#bv"/><use transform="matrix(0.05,0,0,0.05,73,0)" xlink:href="#bd"/><use transform="matrix(0.05,0,0,0.05,83,0)" xlink:href="#bP"/></g><g id="av"><use transform="matrix(0.05,0,0,0.05,0,0)" xlink:href="#bf"/><use transform="matrix(0.05,0,0,0.05,9,0)" xlink:href="#bt"/><use transform="matrix(0.05,0,0,0.05,19,0)" xlink:href="#br"/><use transform="matrix(0.05,0,0,0.05,29,0)" xlink:href="#bv"/><use transform="matrix(0.05,0,0,0.05,34,0)" xlink:href="#bd"/><use transform="matrix(0.05,0,0,0.05,44,0)" xlink:href="#bv"/><use transform="matrix(0.05,0,0,0.05,49,0)" xlink:href="#be"/><use transform="matrix(0.05,0,0,0.05,59,0)" xlink:href="#bl"/></g><g id="aw"><use transform="matrix(0.05,0,0,0.05,0,0)" xlink:href="#bN"/><use transform="matrix(0.05,0,0,0.05,5.95,0)" xlink:href="#bc"/><use transform="matrix(0.05,0,0,0.05,14.949999999999998,0)" xlink:href="#be"/><use transform="matrix(0.05,0,0,0.05,24.95,0)" xlink:href="#ba"/><use transform="matrix(0.05,0,0,0.05,34.95,0)" xlink:href="#bv"/><use transform="matrix(0.05,0,0,0.05,39.95,0)" xlink:href="#bb"/><use transform="matrix(0.05,0,0,0.05,43.900000000000006,0)" xlink:href="#by"/><use transform="matrix(0.05,0,0,0.05,53.900000000000006,0)" xlink:href="#be"/><use transform="matrix(0.05,0,0,0.05,63.900000000000006,0)" xlink:href="#by"/><use transform="matrix(0.05,0,0,0.05,73.9,0)" xlink:href="#bx"/><use transform="matrix(0.05,0,0,0.05,88.85000000000001,0)" xlink:href="#be"/><use transform="matrix(0.05,0,0,0.05,98.85000000000001,0)" xlink:href="#bv"/><use transform="matrix(0.05,0,0,0.05,103.85000000000001,0)" xlink:href="#bj"/></g><g id="ax"><use transform="matrix(0.05,0,0,0.05,0,0)" xlink:href="#bo"/><use transform="matrix(0.05,0,0,0.05,10,0)" xlink:href="#bk"/><use transform="matrix(0.05,0,0,0.05,15.949999999999998,0)" xlink:href="#bj"/><use transform="matrix(0.05,0,0,0.05,25.950000000000003,0)" xlink:href="#bc"/><use transform="matrix(0.05,0,0,0.05,34.95,0)" xlink:href="#bb"/><use transform="matrix(0.05,0,0,0.05,38.900000000000006,0)" xlink:href="#bd"/><use transform="matrix(0.05,0,0,0.05,48.900000000000006,0)" xlink:href="#bF"/><use transform="matrix(0.05,0,0,0.05,61.85,0)" xlink:href="#bt"/><use transform="matrix(0.05,0,0,0.05,71.85000000000001,0)" xlink:href="#bj"/><use transform="matrix(0.05,0,0,0.05,81.85000000000001,0)" xlink:href="#bG"/><use transform="matrix(0.05,0,0,0.05,90.85000000000001,0)" xlink:href="#be"/><use transform="matrix(0.05,0,0,0.05,100.85000000000001,0)" xlink:href="#bP"/></g><g id="ay"><use transform="matrix(0.05,0,0,0.05,0,0)" xlink:href="#aZ"/><use transform="matrix(0.05,0,0,0.05,5,0)" xlink:href="#bn"/><use transform="matrix(0.05,0,0,0.05,19.950000000000003,0)" xlink:href="#bo"/><use transform="matrix(0.05,0,0,0.05,29.950000000000003,0)" xlink:href="#bk"/><use transform="matrix(0.05,0,0,0.05,35.900000000000006,0)" xlink:href="#bb"/><use transform="matrix(0.05,0,0,0.05,39.85000000000001,0)" xlink:href="#bn"/><use transform="matrix(0.05,0,0,0.05,54.80000000000001,0)" xlink:href="#bb"/><use transform="matrix(0.05,0,0,0.05,58.750000000000014,0)" xlink:href="#bk"/></g><g id="az"><use transform="matrix(0.05,0,0,0.05,0,0)" xlink:href="#aZ"/><use transform="matrix(0.05,0,0,0.05,5,0)" xlink:href="#bi"/><use transform="matrix(0.05,0,0,0.05,17.950000000000003,0)" xlink:href="#bs"/></g><g id="aA"><use transform="matrix(0.05,0,0,0.05,0,0)" xlink:href="#bc"/><use transform="matrix(0.05,0,0,0.05,9,0)" xlink:href="#be"/><use transform="matrix(0.05,0,0,0.05,19,0)" xlink:href="#ba"/><use transform="matrix(0.05,0,0,0.05,29,0)" xlink:href="#bv"/><use transform="matrix(0.05,0,0,0.05,34,0)" xlink:href="#bb"/><use transform="matrix(0.05,0,0,0.05,37.95,0)" xlink:href="#bx"/><use transform="matrix(0.05,0,0,0.05,52.900000000000006,0)" xlink:href="#be"/><use transform="matrix(0.05,0,0,0.05,62.900000000000006,0)" xlink:href="#bv"/><use transform="matrix(0.05,0,0,0.05,67.9,0)" xlink:href="#bj"/></g><g id="aB"><use transform="matrix(0.05,0,0,0.05,0,0)" xlink:href="#bo"/><use transform="matrix(0.05,0,0,0.05,10,0)" xlink:href="#bk"/><use transform="matrix(0.05,0,0,0.05,15.949999999999998,0)" xlink:href="#bj"/><use transform="matrix(0.05,0,0,0.05,25.950000000000003,0)" xlink:href="#bc"/><use transform="matrix(0.05,0,0,0.05,34.95,0)" xlink:href="#bb"/><use transform="matrix(0.05,0,0,0.05,38.900000000000006,0)" xlink:href="#bd"/><use transform="matrix(0.05,0,0,0.05,48.900000000000006,0)" xlink:href="#bx"/><use transform="matrix(0.05,0,0,0.05,63.85,0)" xlink:href="#be"/><use transform="matrix(0.05,0,0,0.05,73.85000000000001,0)" xlink:href="#bv"/><use transform="matrix(0.05,0,0,0.05,78.85000000000001,0)" xlink:href="#bj"/><use transform="matrix(0.05,0,0,0.05,88.85000000000001,0)" xlink:href="#bs"/></g><g id="aC"><use transform="matrix(0.05,0,0,0.05,0,0)" xlink:href="#bc"/><use transform="matrix(0.05,0,0,0.05,9,0)" xlink:href="#be"/><use transform="matrix(0.05,0,0,0.05,19,0)" xlink:href="#ba"/><use transform="matrix(0.05,0,0,0.05,29,0)" xlink:href="#bv"/><use transform="matrix(0.05,0,0,0.05,34,0)" xlink:href="#bb"/><use transform="matrix(0.05,0,0,0.05,37.95,0)" xlink:href="#bB"/><use transform="matrix(0.05,0,0,0.05,49.95,0)" xlink:href="#bd"/><use transform="matrix(0.05,0,0,0.05,59.95,0)" xlink:href="#bc"/></g><g id="aD"><use transform="matrix(0.05,0,0,0.05,0,0)" xlink:href="#bo"/><use transform="matrix(0.05,0,0,0.05,10,0)" xlink:href="#bk"/><use transform="matrix(0.05,0,0,0.05,15.949999999999998,0)" xlink:href="#bj"/><use transform="matrix(0.05,0,0,0.05,25.950000000000003,0)" xlink:href="#bc"/><use transform="matrix(0.05,0,0,0.05,34.95,0)" xlink:href="#bb"/><use transform="matrix(0.05,0,0,0.05,38.900000000000006,0)" xlink:href="#bd"/><use transform="matrix(0.05,0,0,0.05,48.900000000000006,0)" xlink:href="#bB"/><use transform="matrix(0.05,0,0,0.05,60.900000000000006,0)" xlink:href="#bd"/><use transform="matrix(0.05,0,0,0.05,70.9,0)" xlink:href="#bc"/><use transform="matrix(0.05,0,0,0.05,79.9,0)" xlink:href="#bs"/></g><g id="aE"><use transform="matrix(0.05,0,0,0.05,0,0)" xlink:href="#bc"/><use transform="matrix(0.05,0,0,0.05,9,0)" xlink:href="#be"/><use transform="matrix(0.05,0,0,0.05,19,0)" xlink:href="#ba"/><use transform="matrix(0.05,0,0,0.05,29,0)" xlink:href="#bv"/><use transform="matrix(0.05,0,0,0.05,34,0)" xlink:href="#bb"/><use transform="matrix(0.05,0,0,0.05,37.95,0)" xlink:href="#bE"/><use transform="matrix(0.05,0,0,0.05,48.900000000000006,0)" xlink:href="#bb"/><use transform="matrix(0.05,0,0,0.05,52.85,0)" xlink:href="#bf"/><use transform="matrix(0.05,0,0,0.05,61.85,0)" xlink:href="#bb"/></g><g id="aF"><use transform="matrix(0.05,0,0,0.05,0,0)" xlink:href="#bo"/><use transform="matrix(0.05,0,0,0.05,10,0)" xlink:href="#bk"/><use transform="matrix(0.05,0,0,0.05,15.949999999999998,0)" xlink:href="#bj"/><use transform="matrix(0.05,0,0,0.05,25.950000000000003,0)" xlink:href="#bc"/><use transform="matrix(0.05,0,0,0.05,34.95,0)" xlink:href="#bb"/><use transform="matrix(0.05,0,0,0.05,38.900000000000006,0)" xlink:href="#bd"/><use transform="matrix(0.05,0,0,0.05,48.900000000000006,0)" xlink:href="#bE"/><use transform="matrix(0.05,0,0,0.05,59.85,0)" xlink:href="#bb"/><use transform="matrix(0.05,0,0,0.05,63.80000000000001,0)" xlink:href="#bf"/><use transform="matrix(0.05,0,0,0.05,72.80000000000001,0)" xlink:href="#bb"/><use transform="matrix(0.05,0,0,0.05,76.75000000000001,0)" xlink:href="#bs"/></g><g id="aG"><use transform="matrix(0.05,0,0,0.05,0,0)" xlink:href="#ba"/><use transform="matrix(0.05,0,0,0.05,10,0)" xlink:href="#bd"/><use transform="matrix(0.05,0,0,0.05,20,0)" xlink:href="#bn"/><use transform="matrix(0.05,0,0,0.05,34.95,0)" xlink:href="#br"/><use transform="matrix(0.05,0,0,0.05,44.95,0)" xlink:href="#bk"/><use transform="matrix(0.05,0,0,0.05,50.900000000000006,0)" xlink:href="#bj"/><use transform="matrix(0.05,0,0,0.05,60.900000000000006,0)" xlink:href="#bF"/><use transform="matrix(0.05,0,0,0.05,73.85000000000001,0)" xlink:href="#bt"/><use transform="matrix(0.05,0,0,0.05,83.85000000000001,0)" xlink:href="#bj"/><use transform="matrix(0.05,0,0,0.05,93.85000000000001,0)" xlink:href="#bG"/><use transform="matrix(0.05,0,0,0.05,102.85000000000001,0)" xlink:href="#bd"/><use transform="matrix(0.05,0,0,0.05,112.85000000000001,0)" xlink:href="#bf"/><use transform="matrix(0.05,0,0,0.05,121.85000000000001,0)" xlink:href="#bs"/></g><g id="aH"><use transform="matrix(0.05,0,0,0.05,0,0)" xlink:href="#bo"/><use transform="matrix(0.05,0,0,0.05,10,0)" xlink:href="#bk"/><use transform="matrix(0.05,0,0,0.05,15.949999999999998,0)" xlink:href="#bj"/><use transform="matrix(0.05,0,0,0.05,25.950000000000003,0)" xlink:href="#bc"/><use transform="matrix(0.05,0,0,0.05,34.95,0)" xlink:href="#bb"/><use transform="matrix(0.05,0,0,0.05,38.900000000000006,0)" xlink:href="#bd"/><use transform="matrix(0.05,0,0,0.05,48.900000000000006,0)" xlink:href="#bF"/><use transform="matrix(0.05,0,0,0.05,61.85,0)" xlink:href="#bt"/><use transform="matrix(0.05,0,0,0.05,71.85000000000001,0)" xlink:href="#bj"/><use transform="matrix(0.05,0,0,0.05,81.85000000000001,0)" xlink:href="#bG"/><use transform="matrix(0.05,0,0,0.05,90.85000000000001,0)" xlink:href="#bd"/><use transform="matrix(0.05,0,0,0.05,100.85000000000001,0)" xlink:href="#bf"/></g><g id="aI"><use transform="matrix(0.05,0,0,0.05,0,0)" xlink:href="#bc"/><use transform="matrix(0.05,0,0,0.05,9,0)" xlink:href="#be"/><use transform="matrix(0.05,0,0,0.05,19,0)" xlink:href="#ba"/><use transform="matrix(0.05,0,0,0.05,29,0)" xlink:href="#bv"/><use transform="matrix(0.05,0,0,0.05,34,0)" xlink:href="#bb"/><use transform="matrix(0.05,0,0,0.05,37.95,0)" xlink:href="#bF"/><use transform="matrix(0.05,0,0,0.05,50.900000000000006,0)" xlink:href="#bt"/><use transform="matrix(0.05,0,0,0.05,60.900000000000006,0)" xlink:href="#bj"/><use transform="matrix(0.05,0,0,0.05,70.9,0)" xlink:href="#bG"/><use transform="matrix(0.05,0,0,0.05,79.9,0)" xlink:href="#bd"/><use transform="matrix(0.05,0,0,0.05,89.9,0)" xlink:href="#bf"/><use transform="matrix(0.05,0,0,0.05,98.9,0)" xlink:href="#bs"/></g><g id="aJ"><use transform="matrix(0.05,0,0,0.05,0,0)" xlink:href="#bf"/><use transform="matrix(0.05,0,0,0.05,9,0)" xlink:href="#bt"/><use transform="matrix(0.05,0,0,0.05,19,0)" xlink:href="#br"/><use transform="matrix(0.05,0,0,0.05,29,0)" xlink:href="#bv"/><use transform="matrix(0.05,0,0,0.05,34,0)" xlink:href="#bd"/><use transform="matrix(0.05,0,0,0.05,44,0)" xlink:href="#bv"/><use transform="matrix(0.05,0,0,0.05,49,0)" xlink:href="#be"/><use transform="matrix(0.05,0,0,0.05,59,0)" xlink:href="#bl"/><use transform="matrix(0.05,0,0,0.05,62.95,0)" xlink:href="#bs"/></g><g id="aK"><use transform="matrix(0.05,0,0,0.05,0,0)" xlink:href="#by"/><use transform="matrix(0.05,0,0,0.05,10,0)" xlink:href="#bj"/><use transform="matrix(0.05,0,0,0.05,20,0)" xlink:href="#bf"/><use transform="matrix(0.05,0,0,0.05,29,0)" xlink:href="#bc"/><use transform="matrix(0.05,0,0,0.05,38,0)" xlink:href="#bt"/><use transform="matrix(0.05,0,0,0.05,48,0)" xlink:href="#bj"/><use transform="matrix(0.05,0,0,0.05,58,0)" xlink:href="#ba"/><use transform="matrix(0.05,0,0,0.05,68,0)" xlink:href="#bv"/><use transform="matrix(0.05,0,0,0.05,73,0)" xlink:href="#bd"/></g><g id="aL"><use transform="matrix(0.05,0,0,0.05,0,0)" xlink:href="#bv"/><use transform="matrix(0.05,0,0,0.05,5,0)" xlink:href="#bd"/><use transform="matrix(0.05,0,0,0.05,15,0)" xlink:href="#bv"/><use transform="matrix(0.05,0,0,0.05,20,0)" xlink:href="#be"/><use transform="matrix(0.05,0,0,0.05,30,0)" xlink:href="#bl"/><use transform="matrix(0.05,0,0,0.05,33.95,0)" xlink:href="#bw"/></g><g id="aM"><use transform="matrix(0.05,0,0,0.05,0,0)" xlink:href="#bE"/><use transform="matrix(0.05,0,0,0.05,10.950000000000001,0)" xlink:href="#bb"/><use transform="matrix(0.05,0,0,0.05,14.9,0)" xlink:href="#ba"/><use transform="matrix(0.05,0,0,0.05,24.900000000000002,0)" xlink:href="#bw"/></g><g id="aN"><use transform="matrix(0.05,0,0,0.05,0,0)" xlink:href="#bo"/><use transform="matrix(0.05,0,0,0.05,10,0)" xlink:href="#bk"/><use transform="matrix(0.05,0,0,0.05,15.949999999999998,0)" xlink:href="#bj"/><use transform="matrix(0.05,0,0,0.05,25.950000000000003,0)" xlink:href="#bc"/><use transform="matrix(0.05,0,0,0.05,34.95,0)" xlink:href="#bb"/><use transform="matrix(0.05,0,0,0.05,38.900000000000006,0)" xlink:href="#bd"/><use transform="matrix(0.05,0,0,0.05,48.900000000000006,0)" xlink:href="#bx"/><use transform="matrix(0.05,0,0,0.05,63.85,0)" xlink:href="#be"/><use transform="matrix(0.05,0,0,0.05,73.85000000000001,0)" xlink:href="#bv"/><use transform="matrix(0.05,0,0,0.05,78.85000000000001,0)" xlink:href="#bj"/></g><g id="aO"><use transform="matrix(0.05,0,0,0.05,0,0)" xlink:href="#bK"/><use transform="matrix(0.05,0,0,0.05,10,0)" xlink:href="#bD"/><use transform="matrix(0.05,0,0,0.05,20,0)" xlink:href="#bD"/><use transform="matrix(0.05,0,0,0.05,30,0)" xlink:href="#bD"/><use transform="matrix(0.05,0,0,0.05,40,0)" xlink:href="#bw"/></g><g id="aP"><use transform="matrix(0.05,0,0,0.05,0,0)" xlink:href="#bo"/><use transform="matrix(0.05,0,0,0.05,10,0)" xlink:href="#bk"/><use transform="matrix(0.05,0,0,0.05,15.949999999999998,0)" xlink:href="#bj"/><use transform="matrix(0.05,0,0,0.05,25.950000000000003,0)" xlink:href="#bc"/><use transform="matrix(0.05,0,0,0.05,34.95,0)" xlink:href="#bb"/><use transform="matrix(0.05,0,0,0.05,38.900000000000006,0)" xlink:href="#bd"/><use transform="matrix(0.05,0,0,0.05,48.900000000000006,0)" xlink:href="#bB"/><use transform="matrix(0.05,0,0,0.05,60.900000000000006,0)" xlink:href="#bd"/><use transform="matrix(0.05,0,0,0.05,70.9,0)" xlink:href="#bc"/></g><path d="M54-142c48-35 137-8 131 61C196 18 31 33 14-55l32-4c7 23 22 37 52 37 35-1 51-22 54-58 4-55-73-65-99-34H22l8-134h141v27H59" id="bR"/><g id="aQ"><use transform="matrix(0.05,0,0,0.05,0,0)" xlink:href="#bR"/><use transform="matrix(0.05,0,0,0.05,10,0)" xlink:href="#bD"/><use transform="matrix(0.05,0,0,0.05,20,0)" xlink:href="#bD"/><use transform="matrix(0.05,0,0,0.05,30,0)" xlink:href="#bD"/><use transform="matrix(0.05,0,0,0.05,40,0)" xlink:href="#bw"/></g><g id="aR"><use transform="matrix(0.05,0,0,0.05,0,0)" xlink:href="#bo"/><use transform="matrix(0.05,0,0,0.05,10,0)" xlink:href="#bk"/><use transform="matrix(0.05,0,0,0.05,15.949999999999998,0)" xlink:href="#bj"/><use transform="matrix(0.05,0,0,0.05,25.950000000000003,0)" xlink:href="#bc"/><use transform="matrix(0.05,0,0,0.05,34.95,0)" xlink:href="#bb"/><use transform="matrix(0.05,0,0,0.05,38.900000000000006,0)" xlink:href="#bd"/><use transform="matrix(0.05,0,0,0.05,48.900000000000006,0)" xlink:href="#bE"/><use transform="matrix(0.05,0,0,0.05,59.85,0)" xlink:href="#bb"/><use transform="matrix(0.05,0,0,0.05,63.80000000000001,0)" xlink:href="#bf"/><use transform="matrix(0.05,0,0,0.05,72.80000000000001,0)" xlink:href="#bb"/></g><path d="M155-56V0h-30v-56H8v-25l114-167h33v167h35v25h-35zm-30-156c-27 46-58 90-88 131h88v-131" id="bS"/><g id="aS"><use transform="matrix(0.05,0,0,0.05,0,0)" xlink:href="#bS"/><use transform="matrix(0.05,0,0,0.05,10,0)" xlink:href="#bD"/><use transform="matrix(0.05,0,0,0.05,20,0)" xlink:href="#bD"/><use transform="matrix(0.05,0,0,0.05,30,0)" xlink:href="#bD"/></g><g id="aT"><use transform="matrix(0.05,0,0,0.05,0,0)" xlink:href="#bi"/><use transform="matrix(0.05,0,0,0.05,12.950000000000001,0)" xlink:href="#be"/><use transform="matrix(0.05,0,0,0.05,22.950000000000003,0)" xlink:href="#bv"/><use transform="matrix(0.05,0,0,0.05,27.950000000000003,0)" xlink:href="#bd"/><use transform="matrix(0.05,0,0,0.05,37.95,0)" xlink:href="#bf"/></g><path d="M16-82v-28h88v28H16" id="bT"/><g id="aU"><use transform="matrix(0.05,0,0,0.05,0,0)" xlink:href="#bo"/><use transform="matrix(0.05,0,0,0.05,10,0)" xlink:href="#bk"/><use transform="matrix(0.05,0,0,0.05,15.949999999999998,0)" xlink:href="#bj"/><use transform="matrix(0.05,0,0,0.05,25.950000000000003,0)" xlink:href="#bT"/><use transform="matrix(0.05,0,0,0.05,31.899999999999995,0)" xlink:href="#be"/><use transform="matrix(0.05,0,0,0.05,41.9,0)" xlink:href="#bl"/><use transform="matrix(0.05,0,0,0.05,45.85,0)" xlink:href="#bn"/><use transform="matrix(0.05,0,0,0.05,60.800000000000004,0)" xlink:href="#be"/><use transform="matrix(0.05,0,0,0.05,70.80000000000001,0)" xlink:href="#bc"/><use transform="matrix(0.05,0,0,0.05,79.80000000000001,0)" xlink:href="#bj"/><use transform="matrix(0.05,0,0,0.05,89.80000000000001,0)" xlink:href="#ba"/><use transform="matrix(0.05,0,0,0.05,99.80000000000001,0)" xlink:href="#be"/><use transform="matrix(0.05,0,0,0.05,109.80000000000001,0)" xlink:href="#by"/><use transform="matrix(0.05,0,0,0.05,119.80000000000001,0)" xlink:href="#bd"/><use transform="matrix(0.05,0,0,0.05,129.8,0)" xlink:href="#bf"/><use transform="matrix(0.05,0,0,0.05,138.8,0)" xlink:href="#bw"/></g><g id="aV"><use transform="matrix(0.05,0,0,0.05,0,0)" xlink:href="#bE"/><use transform="matrix(0.05,0,0,0.05,10.950000000000001,0)" xlink:href="#be"/><use transform="matrix(0.05,0,0,0.05,20.950000000000003,0)" xlink:href="#bc"/><use transform="matrix(0.05,0,0,0.05,29.950000000000003,0)" xlink:href="#bv"/><use transform="matrix(0.05,0,0,0.05,34.95,0)" xlink:href="#bt"/><use transform="matrix(0.05,0,0,0.05,44.95,0)" xlink:href="#bk"/><use transform="matrix(0.05,0,0,0.05,50.900000000000006,0)" xlink:href="#be"/></g><path d="M30-248c87 1 191-15 191 75 0 78-77 80-158 76V0H30v-248zm33 125c57 0 124 11 124-50 0-59-68-47-124-48v98" id="bU"/><g id="aW"><use transform="matrix(0.05,0,0,0.05,0,0)" xlink:href="#bU"/><use transform="matrix(0.05,0,0,0.05,12,0)" xlink:href="#bk"/><use transform="matrix(0.05,0,0,0.05,17.95,0)" xlink:href="#bd"/><use transform="matrix(0.05,0,0,0.05,27.950000000000003,0)" xlink:href="#bu"/><use transform="matrix(0.05,0,0,0.05,36.95,0)" xlink:href="#bj"/><use transform="matrix(0.05,0,0,0.05,46.95,0)" xlink:href="#bc"/><use transform="matrix(0.05,0,0,0.05,55.95,0)" xlink:href="#bv"/><use transform="matrix(0.05,0,0,0.05,60.95,0)" xlink:href="#bd"/><use transform="matrix(0.05,0,0,0.05,70.95,0)" xlink:href="#bw"/></g><g id="aX"><use transform="matrix(0.05,0,0,0.05,0,0)" xlink:href="#bz"/><use transform="matrix(0.05,0,0,0.05,12.950000000000001,0)" xlink:href="#bk"/><use transform="matrix(0.05,0,0,0.05,18.900000000000002,0)" xlink:href="#bb"/><use transform="matrix(0.05,0,0,0.05,22.85,0)" xlink:href="#bf"/><use transform="matrix(0.05,0,0,0.05,31.85,0)" xlink:href="#bv"/><use transform="matrix(0.05,0,0,0.05,36.85,0)" xlink:href="#bb"/><use transform="matrix(0.05,0,0,0.05,40.800000000000004,0)" xlink:href="#be"/><use transform="matrix(0.05,0,0,0.05,50.800000000000004,0)" xlink:href="#ba"/></g><g id="aY"><use transform="matrix(0.05,0,0,0.05,0,0)" xlink:href="#bE"/><use transform="matrix(0.05,0,0,0.05,10.950000000000001,0)" xlink:href="#bj"/><use transform="matrix(0.05,0,0,0.05,20.950000000000003,0)" xlink:href="#bl"/><use transform="matrix(0.05,0,0,0.05,24.900000000000002,0)" xlink:href="#bb"/><use transform="matrix(0.05,0,0,0.05,28.85,0)" xlink:href="#bo"/><use transform="matrix(0.05,0,0,0.05,38.85,0)" xlink:href="#bj"/><use transform="matrix(0.05,0,0,0.05,48.85,0)" xlink:href="#bw"/></g></defs></g></svg>